<svg width="110" height="35" viewBox="0 0 110 35" fill="none" xmlns="http://www.w3.org/2000/svg">
<rect x="2" y="0.00012207" width="107.856" height="34.8235" rx="3.86928" fill="#25292E"/>
<g clip-path="url(#clip0_381_9807)">
<g clip-path="url(#clip1_381_9807)">
<path fill-rule="evenodd" clip-rule="evenodd" d="M15.2106 9.12504C15.0148 9.33538 14.9023 9.65914 14.9023 10.0799V25.045C14.9023 25.4657 15.0148 25.7895 15.2179 25.9926L15.2709 26.0374L23.6563 17.6521V17.4637L15.2636 9.0802L15.2106 9.12504Z" fill="url(#paint0_linear_381_9807)"/>
<path fill-rule="evenodd" clip-rule="evenodd" d="M26.4434 20.4595L23.6465 17.6617V17.4659L26.4444 14.6681L26.5047 14.7056L29.8138 16.586C30.7614 17.1202 30.7614 18.0001 29.8138 18.5415L26.5047 20.422L26.4434 20.4595Z" fill="url(#paint1_linear_381_9807)"/>
<path fill-rule="evenodd" clip-rule="evenodd" d="M26.5046 20.4228L23.6474 17.5646L15.209 26.0029C15.5172 26.334 16.0358 26.3715 16.6157 26.0477L26.5046 20.4228Z" fill="url(#paint2_linear_381_9807)"/>
<path fill-rule="evenodd" clip-rule="evenodd" d="M26.5046 14.7061L16.6157 9.08848C16.0367 8.75742 15.5172 8.8022 15.209 9.13332L23.6464 17.5634L26.5046 14.7061Z" fill="url(#paint3_linear_381_9807)"/>
<path opacity="0.2" fill-rule="evenodd" clip-rule="evenodd" d="M26.4467 20.3615L16.6255 25.9416C16.0767 26.2572 15.5873 26.2352 15.2718 25.9489L15.2188 26.002L15.2718 26.0468C15.5873 26.3321 16.0767 26.355 16.6255 26.0395L26.5144 20.4218L26.4467 20.3615Z" fill="black"/>
<path opacity="0.12" fill-rule="evenodd" clip-rule="evenodd" d="M29.8143 18.4445L26.4375 20.3624L26.4979 20.4228L29.807 18.5423C30.2808 18.2716 30.514 17.9185 30.514 17.5646C30.4838 17.8883 30.2432 18.1966 29.8143 18.4445Z" fill="black"/>
<path opacity="0.25" fill-rule="evenodd" clip-rule="evenodd" d="M16.6173 9.18684L29.8153 16.685C30.2443 16.9255 30.4849 17.2411 30.5223 17.5648C30.5223 17.2118 30.2891 16.8578 29.8153 16.5871L16.6173 9.08899C15.6697 8.54753 14.9023 8.99845 14.9023 10.0814V10.1792C14.9023 9.09629 15.6697 8.65273 16.6173 9.18684Z" fill="white"/>
<path d="M42.3809 12.6022C42.3214 12.6882 42.2266 12.7862 42.0965 12.8965C41.9687 13.0045 41.7902 13.0992 41.5609 13.1808C41.3339 13.2601 41.0396 13.2998 40.6782 13.2998C40.288 13.2998 39.9409 13.2094 39.6367 13.0287C39.3347 12.848 39.0978 12.5868 38.9259 12.2451C38.7539 11.9035 38.668 11.4935 38.668 11.0152V10.635C38.668 10.1566 38.7429 9.74779 38.8928 9.40831C39.0427 9.0667 39.2609 8.80547 39.5474 8.62473C39.8362 8.44399 40.1877 8.35364 40.6021 8.35364C40.9702 8.35364 41.2788 8.41753 41.5279 8.54541C41.7769 8.67102 41.9709 8.84518 42.1098 9.06776C42.2508 9.29039 42.3412 9.54388 42.3809 9.82822H41.7395C41.7108 9.6541 41.6535 9.49541 41.5676 9.35211C41.4838 9.20667 41.3636 9.09093 41.2072 9.00498C41.0507 8.91681 40.8501 8.8727 40.6054 8.8727C40.3079 8.8727 40.0632 8.94433 39.8714 9.08764C39.6819 9.22868 39.5408 9.43036 39.4482 9.69265C39.3579 9.95499 39.3127 10.2669 39.3127 10.6283V11.0152C39.3127 11.3855 39.37 11.7029 39.4846 11.9674C39.5992 12.2297 39.759 12.4314 39.964 12.5724C40.169 12.7135 40.4081 12.784 40.6814 12.784C40.9085 12.784 41.0914 12.7653 41.2303 12.7278C41.3714 12.6882 41.4816 12.6419 41.5609 12.589C41.6403 12.5339 41.7009 12.4821 41.7428 12.4336V11.3491H40.6319V10.8367H42.3809V12.6022ZM44.8308 13.2998C44.498 13.2998 44.2082 13.226 43.9613 13.0783C43.7166 12.9284 43.5259 12.7234 43.3893 12.4633C43.2549 12.2032 43.1876 11.9057 43.1876 11.5707V11.4285C43.1876 11.0405 43.2614 10.7099 43.4091 10.4366C43.559 10.1611 43.753 9.95165 43.991 9.80839C44.2313 9.66291 44.4848 9.59016 44.7515 9.59016C45.0953 9.59016 45.3753 9.66731 45.5913 9.8216C45.8095 9.97371 45.9693 10.182 46.0707 10.4465C46.1743 10.7088 46.2261 11.0064 46.2261 11.3392V11.6136H43.5546V11.1177H45.6078V11.0714C45.599 10.9127 45.567 10.7584 45.5119 10.6085C45.4568 10.4564 45.3686 10.3319 45.2474 10.2349C45.1262 10.1357 44.9609 10.0861 44.7515 10.0861C44.5663 10.0861 44.4021 10.139 44.2588 10.2448C44.1178 10.3484 44.0065 10.5005 43.9249 10.7011C43.8456 10.8995 43.8059 11.1419 43.8059 11.4285V11.5707C43.8059 11.7977 43.8478 12.0048 43.9315 12.1922C44.0153 12.3774 44.1365 12.5261 44.2952 12.6386C44.4539 12.7488 44.6435 12.8039 44.8639 12.8039C45.0799 12.8039 45.2629 12.7598 45.4128 12.6716C45.5626 12.5834 45.6938 12.4655 45.8062 12.3179L46.1798 12.6088C46.0652 12.7851 45.8999 12.9449 45.6838 13.0882C45.4701 13.2293 45.1857 13.2998 44.8308 13.2998ZM48.4447 10.1225H46.5071V9.65628H48.4447V10.1225ZM47.7767 8.78676V12.3476C47.7767 12.471 47.7955 12.5636 47.8329 12.6253C47.8704 12.687 47.9189 12.7278 47.9784 12.7476C48.0379 12.7675 48.1019 12.7774 48.1701 12.7774C48.2209 12.7774 48.2738 12.773 48.3289 12.7642C48.3862 12.7554 48.428 12.7476 48.4544 12.7411L48.4578 13.2337C48.4093 13.2491 48.3454 13.2635 48.2661 13.2767C48.1889 13.2921 48.0952 13.2998 47.985 13.2998C47.8351 13.2998 47.6974 13.27 47.5717 13.2106C47.4461 13.151 47.3458 13.0519 47.2709 12.913C47.1959 12.7719 47.1584 12.5823 47.1584 12.3443V8.78676H47.7767ZM51.5063 13.2337H50.8877V9.65628H51.5063V13.2337ZM50.8417 8.7041C50.8417 8.60712 50.8712 8.52447 50.9307 8.45613C50.9926 8.38778 51.0831 8.35364 51.2021 8.35364C51.321 8.35364 51.4115 8.38778 51.4729 8.45613C51.5372 8.52447 51.5692 8.60712 51.5692 8.7041C51.5692 8.7989 51.5372 8.88044 51.4729 8.94878C51.4115 9.0149 51.321 9.04793 51.2021 9.04793C51.0831 9.04793 50.9926 9.0149 50.9307 8.94878C50.8712 8.88044 50.8417 8.7989 50.8417 8.7041ZM53.986 10.1225H52.0485V9.65628H53.986V10.1225ZM53.3181 8.78676V12.3476C53.3181 12.471 53.3369 12.5636 53.3742 12.6253C53.4119 12.687 53.4603 12.7278 53.5198 12.7476C53.5793 12.7675 53.6431 12.7774 53.7113 12.7774C53.7621 12.7774 53.8153 12.773 53.8699 12.7642C53.9275 12.7554 53.9696 12.7476 53.9957 12.7411L53.9991 13.2337C53.9507 13.2491 53.8869 13.2635 53.8075 13.2767C53.7302 13.2921 53.6363 13.2998 53.5265 13.2998C53.3766 13.2998 53.2388 13.27 53.113 13.2106C52.9873 13.151 52.8871 13.0519 52.8122 12.913C52.7372 12.7719 52.7 12.5823 52.7 12.3443V8.78676H53.3181ZM56.2176 11.4086C56.2176 11.0626 56.2839 10.7529 56.4159 10.4796C56.5484 10.2062 56.7356 9.99025 56.9779 9.83151C57.2207 9.67064 57.508 9.59016 57.8408 9.59016C58.1784 9.59016 58.4691 9.67064 58.7138 9.83151C58.9585 9.99025 59.1457 10.2062 59.2758 10.4796C59.4083 10.7529 59.4741 11.0626 59.4741 11.4086V11.4847C59.4741 11.8285 59.4083 12.1382 59.2758 12.4137C59.1457 12.687 58.9585 12.903 58.7138 13.0618C58.4715 13.2205 58.1827 13.2998 57.8476 13.2998C57.5124 13.2998 57.2227 13.2205 56.9779 13.0618C56.7356 12.903 56.5484 12.687 56.4159 12.4137C56.2839 12.1382 56.2176 11.8285 56.2176 11.4847V11.4086ZM56.8357 11.4847C56.8357 11.7205 56.8735 11.9387 56.9484 12.1393C57.0234 12.3399 57.1346 12.5008 57.2822 12.622C57.4321 12.7432 57.6207 12.8039 57.8476 12.8039C58.0725 12.8039 58.2587 12.7432 58.4062 12.622C58.5561 12.5008 58.6688 12.3399 58.7438 12.1393C58.8188 11.9387 58.856 11.7205 58.856 11.4847V11.4086C58.856 11.1728 58.8188 10.9546 58.7438 10.754C58.6688 10.5534 58.5561 10.3925 58.4062 10.2713C58.2567 10.1478 58.0681 10.0861 57.8408 10.0861C57.6183 10.0861 57.4321 10.1478 57.2822 10.2713C57.1322 10.3925 57.02 10.5534 56.945 10.754C56.8725 10.9546 56.8357 11.1728 56.8357 11.4086V11.4847ZM60.8632 13.2337H60.2446V9.65628H60.8298L60.8632 10.42V13.2337ZM60.4598 11.2962C60.4642 10.97 60.527 10.679 60.648 10.4234C60.7694 10.1655 60.9377 9.96268 61.1539 9.81502C61.372 9.66513 61.6254 9.59016 61.9142 9.59016C62.1502 9.59016 62.3529 9.63427 62.5226 9.72244C62.6948 9.80839 62.8268 9.94614 62.9192 10.1357C63.014 10.3253 63.0614 10.5765 63.0614 10.8895V13.2337H62.4433V10.8829C62.4433 10.6956 62.4157 10.5446 62.3606 10.43C62.3079 10.3154 62.2285 10.2327 62.1226 10.182C62.0167 10.1291 61.8866 10.1026 61.7323 10.1026C61.5805 10.1026 61.4426 10.1346 61.3193 10.1985C61.1959 10.2625 61.0891 10.3506 60.9986 10.463C60.9082 10.5754 60.8385 10.7044 60.7901 10.8499C60.7418 10.9931 60.7176 11.1452 60.7176 11.3061L60.4598 11.2962Z" fill="#E1E3E2"/>
<path fill-rule="evenodd" clip-rule="evenodd" d="M38.2635 20.1919C38.2635 17.8232 40.2544 15.8947 42.6231 15.8947C43.9326 15.8947 44.8644 16.4089 45.5675 17.0786L44.7397 17.9064C44.2372 17.4346 43.5558 17.0686 42.6222 17.0686C40.8924 17.0686 39.5405 18.4612 39.5405 20.191C39.5405 21.9208 40.8924 23.3152 42.6213 23.3152C43.7428 23.3152 44.3809 22.8652 44.7903 22.4549C45.1255 22.1196 45.3452 21.6379 45.4301 20.9772H42.6231V19.806H46.5742C46.6158 20.0157 46.6375 20.2669 46.6375 20.5389C46.6375 21.4183 46.3962 22.5091 45.6199 23.2854C44.8644 24.0717 43.901 24.4909 42.6222 24.4909C40.2526 24.4909 38.2617 22.5642 38.2617 20.1937L38.2635 20.1919ZM49.8314 18.9556C48.3012 18.9556 47.0523 20.1196 47.0523 21.7219C47.0523 23.3161 48.3004 24.4882 49.8314 24.4882C51.3622 24.4882 52.6086 23.3143 52.6086 21.721C52.6086 20.1187 51.3612 18.9547 49.8314 18.9556ZM49.8314 23.4001C48.9937 23.4001 48.2696 22.7088 48.2696 21.7229C48.2696 20.7269 48.9927 20.0455 49.8314 20.0455C50.6691 20.0455 51.3922 20.726 51.3922 21.7229C51.3922 22.7079 50.6701 23.4001 49.8314 23.4001ZM55.8907 18.9556C54.3609 18.9556 53.1135 20.1196 53.1135 21.7219C53.1135 23.3161 54.3609 24.4882 55.8907 24.4882C57.421 24.4882 58.6679 23.3143 58.6679 21.721C58.6679 20.1187 57.4215 18.9547 55.8907 18.9556ZM55.8907 23.4001C55.053 23.4001 54.329 22.7088 54.329 21.7229C54.329 20.7269 55.052 20.0455 55.8907 20.0455C56.7284 20.0455 57.4524 20.726 57.4524 21.7229C57.4524 22.7079 56.7284 23.4001 55.8907 23.4001ZM63.3275 19.1237V19.5738H63.2859C63.014 19.2475 62.4898 18.9547 61.83 18.9547C60.4463 18.9547 59.1767 20.1711 59.1767 21.7337C59.1767 23.2836 60.4458 24.4901 61.83 24.4901C62.4898 24.4901 63.014 24.1973 63.2859 23.862H63.3275V24.2596C63.3275 25.3179 62.7621 25.8845 61.8499 25.8845C61.1055 25.8845 60.6446 25.3495 60.4555 24.9004L59.3963 25.3405C59.7 26.0734 60.5077 26.9753 61.8489 26.9753C63.2733 26.9753 64.479 26.1358 64.479 24.0924V19.1228L63.3275 19.1237ZM61.934 23.4001C61.0963 23.4001 60.3921 22.697 60.3921 21.7337C60.3921 20.7595 61.0954 20.0464 61.934 20.0464C62.7621 20.0464 63.4116 20.7585 63.4116 21.7337C63.4126 22.697 62.7625 23.4001 61.934 23.4001ZM65.3187 16.1884H66.5351V24.3219H65.3187V16.1884ZM69.869 23.4001C69.2508 23.4001 68.8097 23.1164 68.5287 22.5624L72.2283 21.0306L72.1011 20.7161C71.8713 20.0988 71.1686 18.9556 69.7326 18.9556C68.3072 18.9556 67.1222 20.0772 67.1222 21.7229C67.1222 23.2727 68.2961 24.4891 69.869 24.4891C71.1376 24.4891 71.8713 23.7147 72.175 23.2628L71.2314 22.6347C70.9161 23.0965 70.4861 23.4011 69.869 23.4001ZM69.7742 20.0247C70.2554 20.0247 70.6641 20.266 70.8005 20.6113L68.3261 21.6388C68.2956 20.5697 69.1551 20.0247 69.7742 20.0247ZM77.5659 16.1884H74.6577V24.3219H75.8712V21.2411H77.5669C78.9124 21.2411 80.2357 20.2669 80.2357 18.7143C80.2357 17.1644 78.9134 16.1893 77.5688 16.1893L77.5659 16.1884ZM77.5974 20.1088H75.8712V17.3199H77.5974C78.5047 17.3199 79.0217 18.0727 79.0217 18.7143C79.0217 19.3451 78.5047 20.1088 77.5974 20.1088ZM82.1181 24.3219V16.1884H80.9041V24.3219H82.1181ZM87.5704 24.3075V21.1896C87.5704 19.7455 86.4909 18.9403 85.0984 18.9403C84.2211 18.9403 83.3108 19.328 82.9341 20.1856L84.0112 20.6347C84.2419 20.1856 84.6699 20.0383 85.1212 20.0383C85.7485 20.0383 86.3864 20.4151 86.3961 21.0857V21.1697C86.1765 21.0441 85.7069 20.8553 85.1299 20.8553C83.9686 20.8553 82.7866 21.4933 82.7866 22.6862C82.7866 23.7752 83.7394 24.4756 84.8068 24.4756C85.6237 24.4756 86.0725 24.1096 86.3545 23.6812H86.3961V24.3093H87.5695L87.5704 24.3075ZM84.9538 23.3983C84.5563 23.3983 84.0015 23.1995 84.0015 22.7088C84.0015 22.0807 84.6927 21.8385 85.289 21.8385C85.8235 21.8385 86.0735 21.9533 86.399 22.1105C86.3057 22.8407 85.6885 23.3893 84.9538 23.3983ZM91.8387 19.1183L90.4468 22.6437H90.4052L88.961 19.1183H87.6531L89.8185 24.0472L88.5832 26.7882H89.8494L93.1867 19.1183H91.8387Z" fill="white"/>
</g>
</g>
<defs>
<linearGradient id="paint0_linear_381_9807" x1="22.9032" y1="9.91901" x2="9.47147" y2="13.498" gradientUnits="userSpaceOnUse">
<stop stop-color="#00A0FF"/>
<stop offset="0.007" stop-color="#00A1FF"/>
<stop offset="0.26" stop-color="#00BEFF"/>
<stop offset="0.512" stop-color="#00D2FF"/>
<stop offset="0.76" stop-color="#00DFFF"/>
<stop offset="1" stop-color="#00E3FF"/>
</linearGradient>
<linearGradient id="paint1_linear_381_9807" x1="31.0469" y1="17.5642" x2="14.6696" y2="17.5642" gradientUnits="userSpaceOnUse">
<stop stop-color="#FFE000"/>
<stop offset="0.409" stop-color="#FFBD00"/>
<stop offset="0.775" stop-color="#FFA500"/>
<stop offset="1" stop-color="#FF9C00"/>
</linearGradient>
<linearGradient id="paint2_linear_381_9807" x1="24.9509" y1="19.1194" x2="14.1678" y2="37.2681" gradientUnits="userSpaceOnUse">
<stop stop-color="#FF3A44"/>
<stop offset="1" stop-color="#C31162"/>
</linearGradient>
<linearGradient id="paint3_linear_381_9807" x1="13.0848" y1="4.14786" x2="17.8955" y2="12.2534" gradientUnits="userSpaceOnUse">
<stop stop-color="#32A071"/>
<stop offset="0.069" stop-color="#2DA771"/>
<stop offset="0.476" stop-color="#15CF74"/>
<stop offset="0.801" stop-color="#06E775"/>
<stop offset="1" stop-color="#00F076"/>
</linearGradient>
<clipPath id="clip0_381_9807">
<rect width="107.856" height="34.8235" fill="white" transform="translate(0.0644531 0.00012207)"/>
</clipPath>
<clipPath id="clip1_381_9807">
<rect width="107.856" height="34.8235" fill="white" transform="translate(0.0644531 0.00012207)"/>
</clipPath>
</defs>
</svg>
