<svg width="103" height="35" viewBox="0 0 103 35" fill="none" xmlns="http://www.w3.org/2000/svg">
<rect x="0.464844" y="0.00012207" width="102.536" height="34.8235" rx="3.86928" fill="#25292E"/>
<g clip-path="url(#clip0_381_9820)">
<g clip-path="url(#clip1_381_9820)">
<path d="M27.4002 18.068C27.4002 16.6301 28.0608 15.5808 29.3433 14.7646C28.6049 13.7154 27.5167 13.1713 26.0788 13.0547C24.6798 12.9381 23.1641 13.8319 22.62 13.8319C22.0371 13.8319 20.7158 13.0935 19.6665 13.0935C17.4902 13.1324 15.1973 14.8035 15.1973 18.2623C15.1973 19.2727 15.3527 20.322 15.7413 21.4102C16.2466 22.8481 18.0342 26.3457 19.8997 26.268C20.8712 26.268 21.5707 25.5685 22.8532 25.5685C24.0968 25.5685 24.7186 26.268 25.8068 26.268C27.7111 26.268 29.3433 23.0813 29.8096 21.6433C27.2835 20.4386 27.4002 18.1457 27.4002 18.068ZM25.2238 11.6945C26.2731 10.4509 26.1565 9.285 26.1565 8.85754C25.2238 8.93527 24.1357 9.51817 23.5138 10.2177C22.8143 10.995 22.4257 11.9666 22.5034 13.0158C23.5138 13.0935 24.4466 12.5884 25.2238 11.6945Z" fill="white"/>
<path d="M38.4031 13.2329L38.4096 12.7171H39.4082C39.7498 12.7171 40.0352 12.6454 40.2645 12.5022C40.4937 12.3567 40.6656 12.1539 40.7803 11.8938C40.8971 11.6315 40.9555 11.324 40.9555 10.9714V10.6738C40.9555 10.3057 40.8971 9.99271 40.7803 9.73483C40.6656 9.47694 40.497 9.27965 40.2744 9.14302C40.0518 9.00634 39.7818 8.938 39.4644 8.938H38.3832V8.41893H39.4644C39.8876 8.41893 40.2579 8.51151 40.5753 8.69665C40.8949 8.87962 41.144 9.1408 41.3225 9.48023C41.501 9.81748 41.5903 10.2176 41.5903 10.6804V10.9714C41.5903 11.4364 41.501 11.8376 41.3225 12.1748C41.144 12.5121 40.8916 12.7733 40.5654 12.9584C40.2391 13.1414 39.8534 13.2329 39.4082 13.2329H38.4031ZM38.7469 13.2329H38.1055V8.41893H38.7469V13.2329ZM42.2945 11.4078C42.2945 11.0617 42.3607 10.7521 42.4929 10.4787C42.6252 10.2054 42.8125 9.98943 43.055 9.83069C43.2974 9.66982 43.5851 9.58934 43.9179 9.58934C44.2552 9.58934 44.5461 9.66982 44.7908 9.83069C45.0354 9.98943 45.2228 10.2054 45.3528 10.4787C45.4851 10.7521 45.5512 11.0617 45.5512 11.4078V11.4838C45.5512 11.8277 45.4851 12.1374 45.3528 12.4129C45.2228 12.6862 45.0354 12.9022 44.7908 13.061C44.5483 13.2196 44.2596 13.299 43.9245 13.299C43.5895 13.299 43.2996 13.2196 43.055 13.061C42.8125 12.9022 42.6252 12.6862 42.4929 12.4129C42.3607 12.1374 42.2945 11.8277 42.2945 11.4838V11.4078ZM42.9128 11.4838C42.9128 11.7197 42.9503 11.9379 43.0252 12.1385C43.1002 12.339 43.2115 12.5 43.3591 12.6212C43.509 12.7424 43.6975 12.8031 43.9245 12.8031C44.1493 12.8031 44.3356 12.7424 44.4833 12.6212C44.6332 12.5 44.7456 12.339 44.8205 12.1385C44.8955 11.9379 44.933 11.7197 44.933 11.4838V11.4078C44.933 11.172 44.8955 10.9537 44.8205 10.7532C44.7456 10.5526 44.6332 10.3917 44.4833 10.2704C44.3334 10.147 44.1449 10.0853 43.9179 10.0853C43.6953 10.0853 43.509 10.147 43.3591 10.2704C43.2092 10.3917 43.0968 10.5526 43.0219 10.7532C42.9492 10.9537 42.9128 11.172 42.9128 11.4078V11.4838ZM48.1466 9.65546H48.5533L48.4739 10.244L47.5383 13.2329H47.1448L47.2275 12.5915L48.1466 9.65546ZM47.3994 12.6245L47.4523 13.2329H47.039L46.0009 9.65546H46.6158L47.3994 12.6245ZM50.1767 9.65546H50.7885L49.7501 13.2329H49.3404L49.4294 12.6047L50.1767 9.65546ZM49.545 12.5452L49.6441 13.2329H49.2509L48.2888 10.2374L48.2128 9.65546H48.6459L49.545 12.5452ZM52.0315 13.2329H51.4134V9.65546H51.9986L52.0315 10.4192V13.2329ZM51.6281 11.2954C51.6325 10.9692 51.6954 10.6782 51.8167 10.4225C51.9377 10.1647 52.1065 9.96186 52.3227 9.8142C52.5408 9.66431 52.7942 9.58934 53.083 9.58934C53.3185 9.58934 53.5217 9.63345 53.6914 9.72162C53.8631 9.80757 53.9956 9.94532 54.088 10.1349C54.1828 10.3245 54.2302 10.5757 54.2302 10.8887V13.2329H53.6121V10.8821C53.6121 10.6947 53.5845 10.5437 53.5294 10.4292C53.4762 10.3145 53.3969 10.2319 53.2914 10.1812C53.1855 10.1283 53.0554 10.1018 52.9011 10.1018C52.7488 10.1018 52.6114 10.1338 52.4876 10.1977C52.3643 10.2616 52.2574 10.3498 52.1669 10.4622C52.0765 10.5746 52.0073 10.7035 51.9589 10.849C51.9101 10.9923 51.8859 11.1444 51.8859 11.3053L51.6281 11.2954ZM55.8273 13.2329H55.2087V8.15442H55.8273V13.2329ZM56.6437 11.4078C56.6437 11.0617 56.7099 10.7521 56.842 10.4787C56.9745 10.2054 57.1617 9.98943 57.404 9.83069C57.6468 9.66982 57.9341 9.58934 58.2673 9.58934C58.6044 9.58934 58.8951 9.66982 59.1398 9.83069C59.3846 9.98943 59.5722 10.2054 59.7019 10.4787C59.8344 10.7521 59.9006 11.0617 59.9006 11.4078V11.4838C59.9006 11.8277 59.8344 12.1374 59.7019 12.4129C59.5722 12.6862 59.3846 12.9022 59.1398 13.061C58.8975 13.2196 58.6088 13.299 58.2736 13.299C57.9389 13.299 57.6487 13.2196 57.404 13.061C57.1617 12.9022 56.9745 12.6862 56.842 12.4129C56.7099 12.1374 56.6437 11.8277 56.6437 11.4838V11.4078ZM57.2618 11.4838C57.2618 11.7197 57.2995 11.9379 57.3745 12.1385C57.4495 12.339 57.5607 12.5 57.7082 12.6212C57.8581 12.7424 58.0468 12.8031 58.2736 12.8031C58.4985 12.8031 58.6847 12.7424 58.8327 12.6212C58.9822 12.5 59.0949 12.339 59.1698 12.1385C59.2448 11.9379 59.282 11.7197 59.282 11.4838V11.4078C59.282 11.172 59.2448 10.9537 59.1698 10.7532C59.0949 10.5526 58.9822 10.3917 58.8327 10.2704C58.6828 10.147 58.4942 10.0853 58.2673 10.0853C58.0444 10.0853 57.8581 10.147 57.7082 10.2704C57.5583 10.3917 57.4461 10.5526 57.3711 10.7532C57.2986 10.9537 57.2618 11.172 57.2618 11.4078V11.4838ZM62.7804 10.7796C62.7804 10.5658 62.716 10.3961 62.5883 10.2704C62.4626 10.1426 62.2764 10.0787 62.0297 10.0787C61.8774 10.0787 61.7429 10.1051 61.6263 10.158C61.5117 10.2109 61.4222 10.2803 61.3584 10.3663C61.2946 10.4523 61.2626 10.546 61.2626 10.6473H60.6445C60.6445 10.4755 60.7026 10.309 60.8196 10.1481C60.9362 9.98502 61.1006 9.85163 61.312 9.74803C61.5262 9.64225 61.7772 9.58934 62.066 9.58934C62.3262 9.58934 62.5564 9.63345 62.7571 9.72162C62.9579 9.80979 63.1141 9.94314 63.2263 10.1217C63.3409 10.298 63.3985 10.5195 63.3985 10.7862V12.4526C63.3985 12.5716 63.4081 12.6984 63.428 12.8328C63.4502 12.9673 63.4821 13.083 63.5242 13.18V13.2329H62.8795C62.8486 13.1623 62.8244 13.0686 62.8065 12.9518C62.7891 12.8328 62.7804 12.7226 62.7804 12.6212V10.7796ZM62.8926 11.4938H62.2778C61.9296 11.4938 61.6607 11.5489 61.4711 11.6591C61.2815 11.7693 61.1867 11.9346 61.1867 12.155C61.1867 12.327 61.2438 12.4724 61.3584 12.5915C61.4754 12.7104 61.6452 12.77 61.8677 12.77C62.0549 12.77 62.2203 12.7303 62.3634 12.651C62.5071 12.5716 62.6203 12.4735 62.7039 12.3567C62.7881 12.2399 62.8331 12.1274 62.8398 12.0194L63.1044 12.3137C63.0889 12.4063 63.0469 12.5088 62.9787 12.6212C62.9105 12.7336 62.8186 12.8416 62.7039 12.9452C62.5917 13.0466 62.4573 13.1315 62.3006 13.1998C62.1463 13.2659 61.9722 13.299 61.7782 13.299C61.5359 13.299 61.3231 13.2527 61.1403 13.1601C60.9594 13.0654 60.8186 12.9375 60.7171 12.7766C60.6179 12.6157 60.5681 12.4371 60.5681 12.241C60.5681 11.8552 60.7137 11.5632 61.0048 11.3648C61.2955 11.1642 61.6868 11.064 62.1787 11.064H62.8858L62.8926 11.4938ZM66.6153 8.15442H67.2339V13.2329H66.6685L66.6153 12.5386V8.15442ZM64.212 11.4144C64.212 11.0507 64.27 10.7322 64.3871 10.4589C64.5061 10.1834 64.6715 9.9696 64.8828 9.81748C65.0947 9.66542 65.3423 9.58934 65.6267 9.58934C65.9266 9.58934 66.1766 9.6588 66.3773 9.79765C66.5781 9.93429 66.7343 10.1294 66.847 10.3829C66.9616 10.6363 67.0351 10.9383 67.0685 11.2888V11.6095C67.0351 11.9556 66.9626 12.2553 66.8504 12.5088C66.7377 12.7601 66.58 12.9551 66.3773 13.094C66.1766 13.2307 65.9246 13.299 65.6204 13.299C65.3404 13.299 65.0947 13.2208 64.8828 13.0642C64.6715 12.9056 64.5061 12.6896 64.3871 12.4162C64.27 12.1429 64.212 11.8321 64.212 11.4838V11.4144ZM64.8301 11.4838C64.8301 11.7219 64.862 11.939 64.9259 12.1352C64.9921 12.3314 65.0947 12.4889 65.2335 12.608C65.3723 12.7248 65.5517 12.7832 65.7723 12.7832C65.9749 12.7832 66.1418 12.7402 66.2714 12.6542C66.4039 12.5683 66.5099 12.4548 66.5892 12.3137C66.6685 12.1727 66.7299 12.0194 66.7739 11.8541V11.0507C66.7478 10.9295 66.7091 10.8127 66.6583 10.7003C66.61 10.5856 66.5461 10.4843 66.4668 10.3961C66.3894 10.3057 66.2937 10.2341 66.179 10.1812C66.0668 10.1283 65.9333 10.1018 65.7791 10.1018C65.5566 10.1018 65.3747 10.1613 65.2335 10.2803C65.0947 10.3994 64.9921 10.5592 64.9259 10.7598C64.862 10.9581 64.8301 11.1764 64.8301 11.4144V11.4838ZM69.7035 11.4078C69.7035 11.0617 69.7697 10.7521 69.9018 10.4787C70.0343 10.2054 70.2215 9.98943 70.4638 9.83069C70.7066 9.66982 70.9939 9.58934 71.3271 9.58934C71.6642 9.58934 71.9549 9.66982 72.1996 9.83069C72.4444 9.98943 72.6315 10.2054 72.7617 10.4787C72.8942 10.7521 72.96 11.0617 72.96 11.4078V11.4838C72.96 11.8277 72.8942 12.1374 72.7617 12.4129C72.6315 12.6862 72.4444 12.9022 72.1996 13.061C71.9573 13.2196 71.6686 13.299 71.3334 13.299C70.9987 13.299 70.7085 13.2196 70.4638 13.061C70.2215 12.9022 70.0343 12.6862 69.9018 12.4129C69.7697 12.1374 69.7035 11.8277 69.7035 11.4838V11.4078ZM70.3216 11.4838C70.3216 11.7197 70.3593 11.9379 70.4343 12.1385C70.5092 12.339 70.6205 12.5 70.768 12.6212C70.9179 12.7424 71.1066 12.8031 71.3334 12.8031C71.5583 12.8031 71.7445 12.7424 71.892 12.6212C72.042 12.5 72.1547 12.339 72.2296 12.1385C72.3046 11.9379 72.3418 11.7197 72.3418 11.4838V11.4078C72.3418 11.172 72.3046 10.9537 72.2296 10.7532C72.1547 10.5526 72.042 10.3917 71.892 10.2704C71.7426 10.147 71.554 10.0853 71.3271 10.0853C71.1041 10.0853 70.9179 10.147 70.768 10.2704C70.6181 10.3917 70.5059 10.5526 70.4309 10.7532C70.3583 10.9537 70.3216 11.172 70.3216 11.4078V11.4838ZM74.349 13.2329H73.7304V9.65546H74.3157L74.349 10.4192V13.2329ZM73.9457 11.2954C73.95 10.9692 74.0129 10.6782 74.1338 10.4225C74.2552 10.1647 74.424 9.96186 74.6397 9.8142C74.8578 9.66431 75.1113 9.58934 75.4 9.58934C75.636 9.58934 75.8387 9.63345 76.0085 9.72162C76.1806 9.80757 76.3127 9.94532 76.4055 10.1349C76.5003 10.3245 76.5473 10.5757 76.5473 10.8887V13.2329H75.9291V10.8821C75.9291 10.6947 75.9016 10.5437 75.8464 10.4292C75.7937 10.3145 75.7144 10.2319 75.6085 10.1812C75.5026 10.1283 75.3724 10.1018 75.2182 10.1018C75.0663 10.1018 74.9284 10.1338 74.8051 10.1977C74.6818 10.2616 74.5749 10.3498 74.4844 10.4622C74.394 10.5746 74.3244 10.7035 74.276 10.849C74.2276 10.9923 74.2034 11.1444 74.2034 11.3053L73.9457 11.2954ZM80.6574 10.1217H78.7199V9.65546H80.6574V10.1217ZM79.9895 8.78593V12.3468C79.9895 12.4702 80.0078 12.5628 80.0456 12.6245C80.0828 12.6862 80.1317 12.727 80.1912 12.7468C80.2506 12.7667 80.3145 12.7766 80.3827 12.7766C80.4335 12.7766 80.4862 12.7722 80.5413 12.7634C80.5989 12.7546 80.6405 12.7468 80.6671 12.7402L80.6705 13.2329C80.6221 13.2483 80.5578 13.2626 80.4785 13.2758C80.4015 13.2913 80.3077 13.299 80.1974 13.299C80.0475 13.299 79.9101 13.2692 79.7844 13.2097C79.6586 13.1502 79.5585 13.051 79.4836 12.9121C79.4086 12.7711 79.3709 12.5815 79.3709 12.3435V8.78593H79.9895ZM81.9865 13.2329H81.3679V8.15442H81.9865V13.2329ZM81.5831 11.2954C81.5875 10.9692 81.6504 10.6782 81.7713 10.4225C81.8927 10.1647 82.0615 9.96186 82.2772 9.8142C82.4953 9.66431 82.7487 9.58934 83.0375 9.58934C83.2735 9.58934 83.4762 9.63345 83.6459 9.72162C83.8181 9.80757 83.9502 9.94532 84.043 10.1349C84.1378 10.3245 84.1852 10.5757 84.1852 10.8887V13.2329H83.5666V10.8821C83.5666 10.6947 83.539 10.5437 83.4839 10.4292C83.4312 10.3145 83.3519 10.2319 83.246 10.1812C83.14 10.1283 83.0099 10.1018 82.8556 10.1018C82.7038 10.1018 82.5659 10.1338 82.4426 10.1977C82.3193 10.2616 82.2124 10.3498 82.1219 10.4622C82.0315 10.5746 81.9618 10.7035 81.9135 10.849C81.8651 10.9923 81.8409 11.1444 81.8409 11.3053L81.5831 11.2954ZM86.5851 13.299C86.2524 13.299 85.9627 13.2252 85.716 13.0775C85.4713 12.9276 85.2802 12.7226 85.1438 12.4625C85.0094 12.2024 84.9422 11.9049 84.9422 11.5698V11.4276C84.9422 11.0397 85.0161 10.7091 85.1637 10.4357C85.3136 10.1603 85.5075 9.95083 85.7455 9.80757C85.9859 9.66208 86.2393 9.58934 86.5058 9.58934C86.8497 9.58934 87.1297 9.66649 87.3459 9.82077C87.5641 9.97288 87.7237 10.1812 87.8252 10.4457C87.9288 10.708 87.9805 11.0055 87.9805 11.3384V11.6128H85.3092V11.1168H87.3624V11.0706C87.3537 10.9119 87.3218 10.7576 87.2666 10.6077C87.2115 10.4556 87.123 10.3311 87.0021 10.2341C86.8807 10.1349 86.7152 10.0853 86.5058 10.0853C86.3211 10.0853 86.1566 10.1382 86.0135 10.244C85.8722 10.3476 85.761 10.4997 85.6792 10.7003C85.5999 10.8987 85.5603 11.1411 85.5603 11.4276V11.5698C85.5603 11.7969 85.6023 12.004 85.686 12.1914C85.7697 12.3765 85.8911 12.5253 86.0497 12.6378C86.2084 12.7479 86.398 12.8031 86.6185 12.8031C86.8342 12.8031 87.0175 12.759 87.1675 12.6708C87.3169 12.5826 87.4485 12.4647 87.5607 12.317L87.9341 12.608C87.8194 12.7843 87.6545 12.9441 87.4383 13.0874C87.2245 13.2284 86.9401 13.299 86.5851 13.299Z" fill="#E1E3E2"/>
<path d="M65.8481 23.8794C66.3477 23.4259 66.6002 22.8404 66.6002 22.1171C66.6002 21.5316 66.428 21.0379 66.0779 20.6419C65.7335 20.2458 65.1995 19.9014 64.4707 19.6086C63.8738 19.3733 63.4603 19.1551 63.2364 18.9542C62.9781 18.7419 62.846 18.4606 62.846 18.1277C62.846 17.8234 62.9607 17.5708 63.1846 17.3584C63.4545 17.1288 63.8332 17.0083 64.3101 17.0083C64.9185 17.0083 65.4578 17.1403 65.94 17.3986L66.2844 16.2965C65.7736 16.0267 65.1308 15.8947 64.3613 15.8947C63.4946 15.8947 62.8001 16.1185 62.2777 16.5606C61.7554 17.0083 61.4913 17.5766 61.4913 18.2712C61.4913 19.3331 62.2318 20.1425 63.7302 20.6993C64.2753 20.9002 64.6656 21.1183 64.9011 21.3537C65.1308 21.589 65.2513 21.876 65.2513 22.2204C65.2513 22.6051 65.1076 22.915 64.8208 23.1447C64.5393 23.3743 64.1379 23.4891 63.6267 23.4891C62.9152 23.4891 62.2608 23.3111 61.6635 22.961L61.3477 24.0918C61.899 24.4419 62.6279 24.6199 63.5406 24.6199C64.5282 24.6199 65.2972 24.3731 65.8481 23.8794Z" fill="white"/>
<path fill-rule="evenodd" clip-rule="evenodd" d="M43.2527 24.4922H44.6992L41.9611 16.0138H40.2735L37.5469 24.4922H38.9532L39.7052 22.0009H42.4605L43.2527 24.4922ZM41.5077 18.7461L42.2252 20.9562H39.9463L40.6524 18.7461C40.8361 18.0458 40.9681 17.512 41.0542 17.1503H41.0829C41.2895 17.9884 41.433 18.5165 41.5077 18.7461Z" fill="white"/>
<path fill-rule="evenodd" clip-rule="evenodd" d="M50.8605 23.8259C51.4284 23.2232 51.7098 22.4023 51.7098 21.3633C51.7098 20.4277 51.469 19.6814 50.9752 19.1074C50.493 18.5391 49.8961 18.2521 49.1726 18.2521C48.2542 18.2521 47.5654 18.6195 47.1119 19.3485H47.089L47.0143 18.3784H45.8203C45.8547 19.0672 45.872 19.7331 45.872 20.3875V26.9716H47.2325V23.7628C47.5883 24.3425 48.1681 24.6296 48.9776 24.6296C49.7239 24.6296 50.3551 24.3655 50.8605 23.8259ZM49.9247 19.9397C50.1945 20.3243 50.3266 20.8122 50.3266 21.4093C50.3266 22.0579 50.1829 22.5745 49.8961 22.9706C49.6088 23.3609 49.2127 23.5618 48.702 23.5618C48.2657 23.5618 47.9098 23.4069 47.64 23.1027C47.3702 22.7984 47.2325 22.4195 47.2325 21.9775V20.9558C47.2325 20.8467 47.2554 20.7089 47.2956 20.5424C47.376 20.1808 47.5597 19.8938 47.8294 19.6699C48.105 19.4518 48.4092 19.337 48.7422 19.337C49.2359 19.337 49.632 19.5379 49.9247 19.9397Z" fill="white"/>
<path fill-rule="evenodd" clip-rule="evenodd" d="M58.7352 21.3633C58.7352 22.4023 58.4537 23.2232 57.8854 23.8259C57.3805 24.3655 56.7493 24.6296 56.003 24.6296C55.1934 24.6296 54.6135 24.3425 54.258 23.7628V26.9716H52.8975V20.3875C52.8975 19.7331 52.88 19.0672 52.8457 18.3784H54.0399L54.1143 19.3485H54.1371C54.5907 18.6195 55.2795 18.2521 56.198 18.2521C56.9215 18.2521 57.5183 18.5391 58.0006 19.1074C58.4944 19.6814 58.7352 20.4277 58.7352 21.3633ZM57.352 21.4093C57.352 20.8122 57.2199 20.3243 56.95 19.9397C56.6574 19.5379 56.2613 19.337 55.7675 19.337C55.4347 19.337 55.1305 19.4518 54.8548 19.6699C54.5849 19.8938 54.407 20.1808 54.3209 20.5424C54.2807 20.7089 54.258 20.8467 54.258 20.9558V21.9775C54.258 22.4195 54.3954 22.7984 54.6652 23.1027C54.9351 23.4069 55.2911 23.5618 55.7274 23.5618C56.2381 23.5618 56.64 23.3609 56.9215 22.9706C57.2141 22.5745 57.352 22.0579 57.352 21.4093Z" fill="white"/>
<path d="M71.0987 19.4005H69.6004V22.3682C69.6004 23.1202 69.8644 23.4991 70.3926 23.4991C70.6339 23.4991 70.8347 23.4761 70.9952 23.436L71.0354 24.4692C70.766 24.5668 70.4158 24.6185 69.9795 24.6185C69.4398 24.6185 69.0263 24.452 68.722 24.1248C68.4178 23.7976 68.2688 23.2465 68.2688 22.4773V19.3948H67.3789V18.3788H68.2688V17.2594L69.6004 16.8575V18.3788H71.0987V19.4005Z" fill="white"/>
<path fill-rule="evenodd" clip-rule="evenodd" d="M77.0349 23.7017C77.5689 23.099 77.8388 22.3298 77.8388 21.3883C77.8388 20.4757 77.5805 19.7294 77.0582 19.1554C76.5126 18.5584 75.7895 18.2599 74.8938 18.2599C73.9642 18.2599 73.2237 18.5642 72.6723 19.1669C72.1273 19.7696 71.8516 20.5446 71.8516 21.4917C71.8516 22.3987 72.1156 23.1506 72.6496 23.7419C73.1836 24.3331 73.9008 24.6316 74.7966 24.6316C75.7262 24.6316 76.4724 24.3216 77.0349 23.7017ZM76.0705 19.9763C76.3119 20.3781 76.4323 20.8545 76.4323 21.4171C76.4323 21.9796 76.3061 22.4618 76.0594 22.8751C75.761 23.3687 75.3533 23.6156 74.8367 23.6156C74.3086 23.6156 73.895 23.3745 73.6024 22.8866C73.3615 22.4905 73.2406 22.0083 73.2406 21.4458C73.2406 20.866 73.3557 20.3781 73.6024 19.9763C73.8839 19.4883 74.3028 19.2472 74.8478 19.2472C75.376 19.2472 75.7837 19.4883 76.0705 19.9763Z" fill="white"/>
<path d="M82.2582 19.5724C82.1262 19.5494 81.983 19.5379 81.8278 19.5379C81.3514 19.5379 80.9785 19.7159 80.7202 20.0775C80.4963 20.3932 80.3811 20.8008 80.3811 21.283V24.4918H79.0211V20.3014C79.0211 19.5953 79.0095 18.9524 78.9805 18.3784H80.163L80.2148 19.5494H80.2549C80.3986 19.1476 80.6225 18.8204 80.9325 18.5793C81.2367 18.3611 81.5637 18.2521 81.9139 18.2521C82.0401 18.2521 82.1552 18.2636 82.2524 18.275L82.2582 19.5724Z" fill="white"/>
<path fill-rule="evenodd" clip-rule="evenodd" d="M88.2811 21.761C88.3154 21.5945 88.3328 21.3879 88.3328 21.1468C88.3328 20.3833 88.149 19.7461 87.7873 19.218C87.3399 18.5636 86.6681 18.2365 85.7897 18.2365C84.8945 18.2365 84.1825 18.5636 83.6544 19.218C83.1494 19.8323 82.8965 20.6015 82.8965 21.5199C82.8965 22.4556 83.1664 23.2076 83.7061 23.7643C84.2454 24.3212 84.9917 24.6024 85.9392 24.6024C86.7256 24.6024 87.4085 24.4761 87.9885 24.2236L87.7761 23.2822C87.2823 23.4716 86.7309 23.5692 86.1283 23.5692C85.5832 23.5692 85.1412 23.4257 84.7968 23.1444C84.4176 22.8287 84.2227 22.3637 84.2053 21.761H88.2811ZM86.7716 19.7519C86.9549 20.0447 87.0468 20.3948 87.0356 20.7967L84.2111 20.7909C84.2512 20.3833 84.3891 20.0274 84.613 19.7347C84.8887 19.3673 85.25 19.1836 85.692 19.1836C86.1742 19.1836 86.536 19.3731 86.7716 19.7519Z" fill="white"/>
</g>
</g>
<defs>
<clipPath id="clip0_381_9820">
<rect width="102.536" height="34.8235" fill="white" transform="translate(0.464844 0.00012207)"/>
</clipPath>
<clipPath id="clip1_381_9820">
<rect width="102.536" height="34.8235" fill="white" transform="translate(0.464844 0.00012207)"/>
</clipPath>
</defs>
</svg>
