<svg width="40" height="40" viewBox="0 0 40 40" fill="none" xmlns="http://www.w3.org/2000/svg">
<path d="M25.4667 15.05C25.6875 14.813 25.8077 14.4996 25.802 14.1758C25.7962 13.852 25.6651 13.543 25.436 13.314C25.207 13.0849 24.898 12.9538 24.5742 12.948C24.2504 12.9423 23.937 13.0625 23.7 13.2833L16.6667 20.3167L13.3833 17.0333C13.2689 16.9105 13.1309 16.812 12.9776 16.7437C12.8242 16.6754 12.6587 16.6386 12.4909 16.6357C12.323 16.6327 12.1563 16.6636 12.0007 16.7265C11.845 16.7893 11.7036 16.8829 11.5849 17.0016C11.4662 17.1203 11.3727 17.2617 11.3098 17.4173C11.2469 17.573 11.2161 17.7397 11.219 17.9075C11.222 18.0754 11.2587 18.2409 11.327 18.3942C11.3954 18.5476 11.4939 18.6856 11.6167 18.8L15.7833 22.9667C16.0177 23.2008 16.3354 23.3322 16.6667 23.3322C16.9979 23.3322 17.3156 23.2008 17.55 22.9667L25.4667 15.05ZM5 10.4167C5 8.98008 5.57068 7.60233 6.5865 6.5865C7.60233 5.57068 8.98008 5 10.4167 5H26.25C27.6866 5 29.0643 5.57068 30.0802 6.5865C31.096 7.60233 31.6667 8.98008 31.6667 10.4167V26.25C31.6667 27.6866 31.096 29.0643 30.0802 30.0802C29.0643 31.096 27.6866 31.6667 26.25 31.6667H10.4167C8.98008 31.6667 7.60233 31.096 6.5865 30.0802C5.57068 29.0643 5 27.6866 5 26.25V10.4167ZM10.4167 7.5C9.64312 7.5 8.90125 7.80729 8.35427 8.35427C7.80729 8.90125 7.5 9.64312 7.5 10.4167V26.25C7.5 27.86 8.80667 29.1667 10.4167 29.1667H26.25C27.0235 29.1667 27.7654 28.8594 28.3124 28.3124C28.8594 27.7654 29.1667 27.0235 29.1667 26.25V10.4167C29.1667 9.64312 28.8594 8.90125 28.3124 8.35427C27.7654 7.80729 27.0235 7.5 26.25 7.5H10.4167ZM15.4017 35.8333C14.4913 35.8338 13.5955 35.6049 12.7971 35.1676C11.9986 34.7304 11.3232 34.0989 10.8333 33.3317H27.0767C27.8982 33.3319 28.7118 33.1703 29.4709 32.856C30.2299 32.5418 30.9197 32.0811 31.5007 31.5002C32.0817 30.9194 32.5426 30.2297 32.857 29.4707C33.1715 28.7117 33.3333 27.8982 33.3333 27.0767V10.8333C34.1003 11.3234 34.7314 11.9989 35.1684 12.7973C35.6053 13.5958 35.834 14.4915 35.8333 15.4017V27.0767C35.8333 28.2266 35.6068 29.3653 35.1668 30.4277C34.7267 31.4901 34.0817 32.4554 33.2686 33.2686C32.4554 34.0817 31.4901 34.7267 30.4277 35.1668C29.3653 35.6068 28.2266 35.8333 27.0767 35.8333H15.4017Z" fill="#090045"/>
</svg>
