<svg width="124" height="48" viewBox="0 0 124 48" fill="none" xmlns="http://www.w3.org/2000/svg">
<rect x="0.613437" y="0.742343" width="122.645" height="46.0346" rx="7.1285" fill="white" stroke="#090909" stroke-width="0.515313"/>
<g filter="url(#filter0_ii_381_9784)">
<path d="M13.0605 12.5264C12.7966 12.8068 12.6406 13.242 12.6406 13.8055V33.9396C12.6406 34.5041 12.7966 34.9383 13.0605 35.2187L13.1276 35.2843L24.3625 24.0055V23.8726V23.7396L13.1276 12.46L13.0605 12.5264Z" fill="url(#paint0_linear_381_9784)"/>
<path d="M28.1077 27.766L24.3633 24.0052V23.8723V23.7394L28.1086 19.9795L28.1929 20.0277L32.6301 22.5586C33.897 23.2815 33.897 24.4641 32.6301 25.1878L28.1929 27.7187L28.1077 27.766Z" fill="url(#paint1_linear_381_9784)"/>
<g filter="url(#filter1_i_381_9784)">
<path d="M28.1922 27.7175L24.3617 23.8721L13.0605 35.2182C13.4777 35.6625 14.1678 35.7171 14.945 35.2747L28.1922 27.7175Z" fill="url(#paint2_linear_381_9784)"/>
</g>
<path d="M28.1922 20.0273L14.945 12.4711C14.1678 12.0278 13.4777 12.0833 13.0605 12.5276L24.3626 23.8737L28.1922 20.0273Z" fill="url(#paint3_linear_381_9784)"/>
</g>
<path d="M62.0729 24.9741C60.0584 24.9741 58.4165 26.5056 58.4165 28.6149C58.4165 30.7114 60.0584 32.2557 62.0729 32.2557C64.0882 32.2557 65.73 30.7114 65.73 28.6149C65.7292 26.5056 64.0873 24.9741 62.0729 24.9741ZM62.0729 30.8227C60.9688 30.8227 60.0173 29.9127 60.0173 28.6158C60.0173 27.3052 60.9697 26.4089 62.0729 26.4089C63.1769 26.4089 64.1284 27.3052 64.1284 28.6158C64.1284 29.9119 63.1769 30.8227 62.0729 30.8227ZM54.0955 24.9741C52.0811 24.9741 50.4392 26.5056 50.4392 28.6149C50.4392 30.7114 52.0811 32.2557 54.0955 32.2557C56.1108 32.2557 57.7527 30.7114 57.7527 28.6149C57.7527 26.5056 56.1108 24.9741 54.0955 24.9741ZM54.0955 30.8227C52.9915 30.8227 52.04 29.9127 52.04 28.6158C52.04 27.3052 52.9924 26.4089 54.0955 26.4089C55.1995 26.4089 56.1511 27.3052 56.1511 28.6158C56.152 29.9119 55.1995 30.8227 54.0955 30.8227ZM44.6074 26.0921V27.6365H48.3057C48.1952 28.5054 47.9057 29.1397 47.4637 29.5806C46.9259 30.1182 46.0839 30.7114 44.6074 30.7114C42.3308 30.7114 40.551 28.8769 40.551 26.6015C40.551 24.3261 42.3308 22.4916 44.6074 22.4916C45.8356 22.4916 46.7323 22.9744 47.3944 23.595L48.4847 22.5053C47.5597 21.6227 46.3323 20.9473 44.6074 20.9473C41.4889 20.9473 38.8672 23.4846 38.8672 26.6015C38.8672 29.7184 41.4889 32.2557 44.6074 32.2557C46.2904 32.2557 47.5605 31.7036 48.5532 30.6695C49.5741 29.6491 49.8919 28.2143 49.8919 27.0561C49.8919 26.6982 49.8645 26.3669 49.8088 26.0913L44.6074 26.0921ZM83.4131 27.2915C83.1099 26.4782 82.1849 24.9741 80.2946 24.9741C78.4181 24.9741 76.8584 26.45 76.8584 28.6149C76.8584 30.6558 78.4043 32.2557 80.4736 32.2557C82.1429 32.2557 83.109 31.2353 83.5099 30.6421L82.268 29.8143C81.8543 30.4212 81.2881 30.821 80.4736 30.821C79.66 30.821 79.0801 30.4486 78.7075 29.7175L83.5784 27.7041L83.4131 27.2915ZM78.4455 28.5054C78.4043 27.098 79.5358 26.3815 80.3503 26.3815C80.9849 26.3815 81.5228 26.6991 81.7027 27.1537L78.4455 28.5054ZM74.4859 32.0357H76.0858V21.3342H74.4859V32.0357ZM71.8634 25.7882H71.8085C71.4497 25.3602 70.7593 24.9741 69.8909 24.9741C68.0691 24.9741 66.3998 26.5741 66.3998 28.6295C66.3998 30.6703 68.0691 32.2566 69.8909 32.2566C70.7602 32.2566 71.4497 31.8705 71.8085 31.4296H71.8634V31.9535C71.8634 33.3463 71.1182 34.0911 69.9183 34.0911C68.9384 34.0911 68.3312 33.3883 68.0828 32.795L66.6893 33.3746C67.0893 34.3394 68.1513 35.5259 69.9183 35.5259C71.7948 35.5259 73.3819 34.4224 73.3819 31.7327V25.1959H71.8642L71.8634 25.7882ZM70.0288 30.8227C68.9247 30.8227 68.0006 29.8982 68.0006 28.6295C68.0006 27.3463 68.9247 26.4089 70.0288 26.4089C71.1182 26.4089 71.9738 27.3463 71.9738 28.6295C71.9738 29.8982 71.1182 30.8227 70.0288 30.8227ZM90.9108 21.3342H87.0814V32.0357H88.6788V27.9815H90.9099C92.6811 27.9815 94.4232 26.6999 94.4232 24.6583C94.4232 22.6166 92.682 21.3342 90.9108 21.3342ZM90.9519 26.4919H88.6788V22.8237H90.9519C92.1467 22.8237 92.825 23.8125 92.825 24.6583C92.825 25.4869 92.1467 26.4919 90.9519 26.4919ZM100.829 24.9553C99.6718 24.9553 98.4735 25.4647 97.9776 26.5938L99.396 27.1853C99.6992 26.5938 100.264 26.4003 100.856 26.4003C101.683 26.4003 102.523 26.896 102.537 27.7769V27.8873C102.247 27.7221 101.627 27.4747 100.87 27.4747C99.3412 27.4747 97.7841 28.3145 97.7841 29.8836C97.7841 31.3158 99.038 32.2378 100.443 32.2378C101.517 32.2378 102.109 31.7558 102.481 31.1908H102.536V32.0169H104.079V27.9138C104.08 26.0151 102.66 24.9553 100.829 24.9553ZM100.635 30.8201C100.113 30.8201 99.3823 30.5582 99.3823 29.911C99.3823 29.0849 100.292 28.7682 101.077 28.7682C101.779 28.7682 102.11 28.9197 102.537 29.126C102.413 30.1182 101.559 30.8201 100.635 30.8201ZM109.7 25.189L107.868 29.8288H107.813L105.911 25.189H104.19L107.041 31.6736L105.415 35.281H107.082L111.477 25.189H109.7ZM95.3054 32.0357H96.9028V21.3342H95.3054V32.0357Z" fill="#090909"/>
<path d="M40.6592 18.8802C40.5891 18.8802 40.5229 18.8714 40.4606 18.8539C40.4003 18.8364 40.3428 18.815 40.2883 18.7896L40.3993 18.4918C40.4888 18.5268 40.5638 18.5444 40.6241 18.5444C40.7001 18.5444 40.7585 18.52 40.7994 18.4714C40.8422 18.4246 40.8636 18.373 40.8636 18.3166C40.8636 18.227 40.8237 18.1618 40.7439 18.1209C40.6641 18.082 40.5745 18.0479 40.4752 18.0187L40.6913 17.4172H41.0096L40.8607 17.826C40.9658 17.8727 41.0505 17.936 41.1147 18.0158C41.1809 18.0976 41.214 18.2017 41.214 18.3283C41.214 18.486 41.1585 18.6174 41.0476 18.7225C40.9385 18.8276 40.8091 18.8802 40.6592 18.8802ZM40.7439 17.5661C40.4499 17.5661 40.1852 17.5175 39.9496 17.4201C39.716 17.3208 39.5223 17.1807 39.3685 16.9996C39.2167 16.8186 39.1174 16.6035 39.0706 16.3543L39.5087 16.2813C39.5787 16.5538 39.7267 16.768 39.9525 16.9237C40.1783 17.0775 40.448 17.1544 40.7614 17.1544C40.9677 17.1544 41.1527 17.1223 41.3162 17.058C41.4797 16.9918 41.6082 16.8984 41.7017 16.7777C41.7951 16.657 41.8418 16.5139 41.8418 16.3484C41.8418 16.2394 41.8224 16.1469 41.7834 16.071C41.7445 15.9932 41.6929 15.9289 41.6287 15.8783C41.5644 15.8277 41.4943 15.7858 41.4184 15.7527C41.3425 15.7177 41.2685 15.6895 41.1965 15.668L40.1306 15.3498C40.0022 15.3128 39.8834 15.266 39.7744 15.2096C39.6654 15.1512 39.57 15.0821 39.4882 15.0023C39.4084 14.9205 39.3461 14.8251 39.3013 14.7161C39.2566 14.6071 39.2342 14.4825 39.2342 14.3423C39.2342 14.1048 39.2965 13.8994 39.4211 13.7262C39.5457 13.5529 39.716 13.4196 39.9321 13.3261C40.1482 13.2327 40.3944 13.1869 40.6709 13.1889C40.9512 13.1889 41.2014 13.2385 41.4213 13.3378C41.6433 13.4371 41.8263 13.5792 41.9703 13.7641C42.1144 13.9471 42.2098 14.1642 42.2565 14.4153L41.8068 14.4971C41.7776 14.3141 41.7104 14.1554 41.6053 14.0211C41.5002 13.8868 41.3659 13.7836 41.2023 13.7116C41.0407 13.6376 40.8626 13.5996 40.6679 13.5977C40.4791 13.5977 40.3107 13.6298 40.1628 13.6941C40.0168 13.7564 39.9009 13.842 39.8153 13.951C39.7296 14.06 39.6868 14.1846 39.6868 14.3248C39.6868 14.4669 39.7257 14.5808 39.8036 14.6665C39.8834 14.7521 39.9807 14.8193 40.0956 14.8679C40.2124 14.9166 40.3253 14.9565 40.4343 14.9877L41.2578 15.23C41.3435 15.2534 41.4437 15.2875 41.5586 15.3322C41.6754 15.3751 41.7883 15.4374 41.8973 15.5191C42.0083 15.5989 42.0998 15.7041 42.1718 15.8345C42.2438 15.9649 42.2798 16.1304 42.2798 16.3309C42.2798 16.5256 42.2409 16.6998 42.163 16.8536C42.0871 17.0074 41.9791 17.1369 41.8389 17.242C41.7007 17.3471 41.5381 17.4269 41.3513 17.4814C41.1663 17.5379 40.9639 17.5661 40.7439 17.5661ZM42.941 13.7262V13.2444H43.3703V13.7262H42.941ZM42.941 17.4785V14.3248H43.3703V17.4785H42.941ZM48.0068 17.4785L48.0097 15.4082C48.0097 15.1648 47.9416 14.974 47.8053 14.8358C47.671 14.6957 47.4997 14.6256 47.2914 14.6256C47.1726 14.6256 47.0568 14.6528 46.9439 14.7073C46.831 14.7618 46.7375 14.8494 46.6636 14.9701C46.5915 15.0908 46.5555 15.2485 46.5555 15.4432L46.3015 15.3702C46.2956 15.1444 46.3394 14.9468 46.4329 14.7774C46.5283 14.608 46.6587 14.4766 46.8242 14.3832C46.9916 14.2878 47.1804 14.2401 47.3907 14.2401C47.708 14.2401 47.962 14.3384 48.1528 14.535C48.3436 14.7297 48.439 14.9935 48.439 15.3264L48.4361 17.4785H48.0068ZM44.2428 17.4785V14.3248H44.6283V15.1015H44.675V17.4785H44.2428ZM46.1292 17.4785L46.1321 15.4374C46.1321 15.1862 46.0649 14.9886 45.9306 14.8446C45.7982 14.6986 45.623 14.6256 45.405 14.6256C45.187 14.6256 45.0108 14.7005 44.8765 14.8504C44.7421 14.9984 44.675 15.196 44.675 15.4432L44.418 15.303C44.418 15.1006 44.4657 14.9195 44.5611 14.7599C44.6565 14.5983 44.7869 14.4718 44.9524 14.3803C45.1179 14.2868 45.3057 14.2401 45.516 14.2401C45.7165 14.2401 45.8946 14.2829 46.0503 14.3686C46.208 14.4543 46.3316 14.5788 46.4212 14.7424C46.5107 14.9059 46.5555 15.1045 46.5555 15.3381L46.5526 17.4785H46.1292ZM50.4026 17.5661C50.1087 17.5661 49.8575 17.4931 49.6492 17.3471C49.4409 17.1992 49.2813 16.9996 49.1703 16.7485C49.0594 16.4974 49.0039 16.2141 49.0039 15.8987C49.0039 15.5853 49.0584 15.303 49.1674 15.0519C49.2784 14.8008 49.437 14.6022 49.6434 14.4562C49.8498 14.3102 50.097 14.2372 50.3851 14.2372C50.681 14.2372 50.9302 14.3092 51.1327 14.4533C51.3351 14.5973 51.4879 14.7949 51.5911 15.0461C51.6962 15.2952 51.7488 15.5795 51.7488 15.8987C51.7488 16.2122 51.6972 16.4954 51.594 16.7485C51.4909 16.9996 51.339 17.1992 51.1385 17.3471C50.938 17.4931 50.6927 17.5661 50.4026 17.5661ZM50.4464 17.1661C50.6703 17.1661 50.8552 17.1116 51.0012 17.0025C51.1473 16.8935 51.2563 16.7436 51.3283 16.5528C51.4003 16.3601 51.4363 16.1421 51.4363 15.8987C51.4363 15.6515 51.4003 15.4335 51.3283 15.2446C51.2563 15.0539 51.1473 14.9049 51.0012 14.7979C50.8572 14.6908 50.6752 14.6373 50.4552 14.6373C50.2294 14.6373 50.0425 14.6927 49.8945 14.8037C49.7466 14.9147 49.6366 15.0655 49.5646 15.2563C49.4945 15.4471 49.4594 15.6612 49.4594 15.8987C49.4594 16.1382 49.4954 16.3543 49.5675 16.547C49.6415 16.7378 49.7514 16.8887 49.8974 16.9996C50.0435 17.1106 50.2264 17.1661 50.4464 17.1661ZM51.4363 17.4785V15.1045H51.3896V13.2736H51.8218V17.4785H51.4363ZM52.6994 13.7262V13.2444H53.1287V13.7262H52.6994ZM52.6994 17.4785V14.3248H53.1287V17.4785H52.6994ZM56.8903 17.4785C56.7132 17.5155 56.538 17.5301 56.3647 17.5223C56.1934 17.5145 56.0396 17.4775 55.9033 17.4114C55.769 17.3452 55.6668 17.242 55.5967 17.1018C55.5403 16.985 55.5091 16.8672 55.5033 16.7485C55.4994 16.6278 55.4974 16.4905 55.4974 16.3368V13.4488H55.9238V16.3192C55.9238 16.4516 55.9247 16.5626 55.9267 16.6521C55.9306 16.7397 55.951 16.8176 55.988 16.8857C56.0581 17.0162 56.1691 17.094 56.3209 17.1193C56.4747 17.1446 56.6645 17.1388 56.8903 17.1018V17.4785ZM54.8229 14.6927V14.3248H56.8903V14.6927H54.8229ZM58.7321 17.5661C58.4245 17.5661 58.1578 17.498 57.932 17.3617C57.7081 17.2254 57.5339 17.0337 57.4093 16.7865C57.2847 16.5392 57.2224 16.2492 57.2224 15.9163C57.2224 15.5717 57.2837 15.2738 57.4064 15.0227C57.529 14.7716 57.7013 14.5779 57.9232 14.4416C58.1471 14.3053 58.4109 14.2372 58.7146 14.2372C59.0261 14.2372 59.2918 14.3092 59.5118 14.4533C59.7317 14.5954 59.8982 14.7998 60.0111 15.0665C60.124 15.3332 60.1756 15.6515 60.1659 16.0214H59.7279V15.8695C59.7201 15.4607 59.6315 15.1522 59.4621 14.9439C59.2947 14.7356 59.0494 14.6314 58.7263 14.6314C58.3875 14.6314 58.1276 14.7414 57.9466 14.9614C57.7675 15.1814 57.6779 15.4948 57.6779 15.9017C57.6779 16.2988 57.7675 16.6074 57.9466 16.8273C58.1276 17.0454 58.3836 17.1544 58.7146 17.1544C58.9404 17.1544 59.137 17.1028 59.3044 16.9996C59.4738 16.8945 59.6072 16.7436 59.7045 16.547L60.1045 16.7018C59.98 16.9763 59.796 17.1894 59.5526 17.3413C59.3113 17.4912 59.0377 17.5661 58.7321 17.5661ZM57.5261 16.0214V15.6622H59.9352V16.0214H57.5261ZM60.8723 17.4785V13.186H61.3016V17.4785H60.8723ZM63.5115 17.5661C63.2039 17.5661 62.9372 17.498 62.7114 17.3617C62.4875 17.2254 62.3133 17.0337 62.1887 16.7865C62.0641 16.5392 62.0018 16.2492 62.0018 15.9163C62.0018 15.5717 62.0631 15.2738 62.1858 15.0227C62.3084 14.7716 62.4807 14.5779 62.7026 14.4416C62.9265 14.3053 63.1903 14.2372 63.494 14.2372C63.8054 14.2372 64.0712 14.3092 64.2912 14.4533C64.5111 14.5954 64.6776 14.7998 64.7905 15.0665C64.9034 15.3332 64.955 15.6515 64.9453 16.0214H64.5072V15.8695C64.4995 15.4607 64.4109 15.1522 64.2415 14.9439C64.0741 14.7356 63.8288 14.6314 63.5057 14.6314C63.1669 14.6314 62.907 14.7414 62.726 14.9614C62.5469 15.1814 62.4573 15.4948 62.4573 15.9017C62.4573 16.2988 62.5469 16.6074 62.726 16.8273C62.907 17.0454 63.163 17.1544 63.494 17.1544C63.7198 17.1544 63.9164 17.1028 64.0838 16.9996C64.2532 16.8945 64.3865 16.7436 64.4839 16.547L64.8839 16.7018C64.7594 16.9763 64.5754 17.1894 64.332 17.3413C64.0906 17.4912 63.8171 17.5661 63.5115 17.5661ZM62.3055 16.0214V15.6622H64.7146V16.0214H62.3055ZM65.9058 17.4785V14.0912C65.9058 14.0094 65.9096 13.9286 65.9174 13.8488C65.9272 13.769 65.9457 13.6931 65.9729 13.6211C66.0002 13.5471 66.043 13.4789 66.1014 13.4166C66.1656 13.3466 66.2357 13.2959 66.3116 13.2648C66.3876 13.2317 66.4664 13.2103 66.5482 13.2006C66.6319 13.1908 66.7136 13.186 66.7935 13.186H67.1964V13.5481H66.8227C66.6591 13.5481 66.5365 13.588 66.4547 13.6678C66.3749 13.7476 66.335 13.8732 66.335 14.0445V17.4785H65.9058ZM65.3597 14.6927V14.3248H67.1964V14.6927H65.3597ZM68.8665 17.5661C68.5531 17.5661 68.2854 17.4951 68.0635 17.353C67.8416 17.2108 67.6712 17.0142 67.5525 16.7631C67.4337 16.512 67.3743 16.2238 67.3743 15.8987C67.3743 15.5678 67.4347 15.2777 67.5554 15.0285C67.6761 14.7794 67.8474 14.5857 68.0693 14.4474C68.2932 14.3073 68.5589 14.2372 68.8665 14.2372C69.1819 14.2372 69.4505 14.3083 69.6725 14.4504C69.8963 14.5905 70.0667 14.7862 70.1835 15.0373C70.3022 15.2865 70.3616 15.5736 70.3616 15.8987C70.3616 16.2297 70.3022 16.5207 70.1835 16.7718C70.0647 17.021 69.8934 17.2157 69.6695 17.3559C69.4457 17.496 69.178 17.5661 68.8665 17.5661ZM68.8665 17.1544C69.2169 17.1544 69.4778 17.0386 69.6491 16.8069C69.8204 16.5733 69.9061 16.2706 69.9061 15.8987C69.9061 15.5172 69.8194 15.2135 69.6462 14.9877C69.4749 14.7618 69.215 14.6489 68.8665 14.6489C68.631 14.6489 68.4363 14.7025 68.2825 14.8095C68.1306 14.9147 68.0168 15.0616 67.9408 15.2505C67.8669 15.4374 67.8299 15.6534 67.8299 15.8987C67.8299 16.2784 67.9175 16.583 68.0927 16.8127C68.2679 17.0405 68.5258 17.1544 68.8665 17.1544ZM73.2834 17.4785V15.8695C73.2834 15.6943 73.2669 15.5337 73.2338 15.3877C73.2007 15.2398 73.1472 15.1113 73.0732 15.0023C73.0012 14.8913 72.9068 14.8056 72.79 14.7453C72.6751 14.6849 72.5349 14.6548 72.3695 14.6548C72.2176 14.6548 72.0833 14.6811 71.9665 14.7336C71.8516 14.7862 71.7543 14.8621 71.6745 14.9614C71.5966 15.0587 71.5372 15.1775 71.4963 15.3176C71.4555 15.4578 71.435 15.6174 71.435 15.7965L71.1313 15.7294C71.1313 15.4062 71.1878 15.1346 71.3007 14.9147C71.4136 14.6947 71.5693 14.5282 71.7679 14.4153C71.9665 14.3024 72.1942 14.246 72.4512 14.246C72.6401 14.246 72.8046 14.2752 72.9447 14.3336C73.0868 14.392 73.2066 14.4708 73.3039 14.5701C73.4032 14.6694 73.483 14.7833 73.5433 14.9117C73.6037 15.0383 73.6475 15.1736 73.6747 15.3176C73.702 15.4597 73.7156 15.6019 73.7156 15.744V17.4785H73.2834ZM71.0028 17.4785V14.3248H71.3912V15.1015H71.435V17.4785H71.0028ZM75.6794 17.5574C75.4906 17.5574 75.3251 17.5282 75.183 17.4698C75.0428 17.4114 74.9231 17.3325 74.8238 17.2332C74.7265 17.1339 74.6476 17.021 74.5873 16.8945C74.5269 16.766 74.4831 16.6307 74.4559 16.4886C74.4286 16.3445 74.415 16.2015 74.415 16.0593V14.3248H74.8472V15.9338C74.8472 16.107 74.8637 16.2676 74.8968 16.4156C74.9299 16.5635 74.9825 16.693 75.0545 16.804C75.1285 16.913 75.2229 16.9977 75.3377 17.058C75.4546 17.1184 75.5957 17.1485 75.7612 17.1485C75.913 17.1485 76.0464 17.1223 76.1612 17.0697C76.278 17.0171 76.3754 16.9422 76.4532 16.8449C76.533 16.7456 76.5934 16.6258 76.6343 16.4857C76.6752 16.3436 76.6956 16.1839 76.6956 16.0068L76.9993 16.0739C76.9993 16.3971 76.9428 16.6687 76.8299 16.8887C76.717 17.1086 76.5613 17.2751 76.3627 17.388C76.1641 17.5009 75.9364 17.5574 75.6794 17.5574ZM76.7394 17.4785V16.7018H76.6956V14.3248H77.1249V17.4785H76.7394ZM80.2187 17.4785V15.8695C80.2187 15.6943 80.2022 15.5337 80.1691 15.3877C80.136 15.2398 80.0824 15.1113 80.0085 15.0023C79.9364 14.8913 79.842 14.8056 79.7252 14.7453C79.6103 14.6849 79.4702 14.6548 79.3047 14.6548C79.1529 14.6548 79.0185 14.6811 78.9017 14.7336C78.7869 14.7862 78.6895 14.8621 78.6097 14.9614C78.5319 15.0587 78.4725 15.1775 78.4316 15.3176C78.3907 15.4578 78.3703 15.6174 78.3703 15.7965L78.0666 15.7294C78.0666 15.4062 78.123 15.1346 78.2359 14.9147C78.3489 14.6947 78.5046 14.5282 78.7032 14.4153C78.9017 14.3024 79.1295 14.246 79.3865 14.246C79.5753 14.246 79.7398 14.2752 79.88 14.3336C80.0221 14.392 80.1418 14.4708 80.2391 14.5701C80.3384 14.6694 80.4182 14.7833 80.4786 14.9117C80.5389 15.0383 80.5827 15.1736 80.61 15.3176C80.6373 15.4597 80.6509 15.6019 80.6509 15.744V17.4785H80.2187ZM77.9381 17.4785V14.3248H78.3265V15.1015H78.3703V17.4785H77.9381ZM82.6147 17.5574C82.4258 17.5574 82.2603 17.5282 82.1182 17.4698C81.9781 17.4114 81.8583 17.3325 81.7591 17.2332C81.6617 17.1339 81.5829 17.021 81.5225 16.8945C81.4622 16.766 81.4184 16.6307 81.3911 16.4886C81.3639 16.3445 81.3502 16.2015 81.3502 16.0593V14.3248H81.7824V15.9338C81.7824 16.107 81.799 16.2676 81.8321 16.4156C81.8652 16.5635 81.9177 16.693 81.9897 16.804C82.0637 16.913 82.1581 16.9977 82.273 17.058C82.3898 17.1184 82.5309 17.1485 82.6964 17.1485C82.8483 17.1485 82.9816 17.1223 83.0965 17.0697C83.2133 17.0171 83.3106 16.9422 83.3885 16.8449C83.4683 16.7456 83.5286 16.6258 83.5695 16.4857C83.6104 16.3436 83.6308 16.1839 83.6308 16.0068L83.9345 16.0739C83.9345 16.3971 83.8781 16.6687 83.7652 16.8887C83.6523 17.1086 83.4965 17.2751 83.298 17.388C83.0994 17.5009 82.8716 17.5574 82.6147 17.5574ZM83.6747 17.4785V16.7018H83.6308V14.3248H84.0601V17.4785H83.6747ZM84.5843 17.4785V17.388L86.6196 14.7249H84.7361V14.3248H87.3262V14.4241L85.2939 17.0785H87.2153V17.4785H84.5843ZM88.693 17.5661C88.4555 17.5661 88.256 17.5233 88.0944 17.4376C87.9347 17.352 87.815 17.2381 87.7352 17.096C87.6554 16.9539 87.6155 16.7991 87.6155 16.6317C87.6155 16.4604 87.6495 16.3144 87.7177 16.1937C87.7878 16.071 87.8822 15.9708 88.0009 15.8929C88.1216 15.815 88.2608 15.7557 88.4185 15.7148C88.5781 15.6758 88.7543 15.6418 88.947 15.6126C89.1417 15.5814 89.3315 15.5551 89.5165 15.5337C89.7034 15.5104 89.8669 15.488 90.007 15.4666L89.8552 15.56C89.861 15.2485 89.8007 15.0178 89.6742 14.8679C89.5476 14.718 89.3276 14.6431 89.0142 14.6431C88.7981 14.6431 88.6151 14.6918 88.4652 14.7891C88.3173 14.8864 88.2131 15.0402 88.1528 15.2505L87.7352 15.1278C87.8072 14.8456 87.9523 14.6265 88.1703 14.4708C88.3883 14.3151 88.6716 14.2372 89.02 14.2372C89.3082 14.2372 89.5525 14.2917 89.753 14.4007C89.9555 14.5078 90.0985 14.6635 90.1822 14.8679C90.2212 14.9594 90.2465 15.0616 90.2582 15.1746C90.2699 15.2875 90.2757 15.4023 90.2757 15.5191V17.4785H89.8932V16.6872L90.0041 16.7339C89.8971 17.0045 89.7306 17.2108 89.5048 17.353C89.279 17.4951 89.0084 17.5661 88.693 17.5661ZM88.7426 17.1953C88.9432 17.1953 89.1184 17.1593 89.2683 17.0872C89.4182 17.0152 89.5389 16.9169 89.6303 16.7923C89.7218 16.6658 89.7812 16.5236 89.8085 16.366C89.8318 16.2647 89.8445 16.1538 89.8464 16.0331C89.8484 15.9104 89.8494 15.8189 89.8494 15.7586L90.0129 15.8433C89.8669 15.8627 89.7082 15.8822 89.5369 15.9017C89.3675 15.9211 89.2001 15.9435 89.0346 15.9688C88.8711 15.9941 88.7232 16.0243 88.5908 16.0593C88.5012 16.0847 88.4146 16.1207 88.3309 16.1674C88.2472 16.2122 88.1781 16.2725 88.1236 16.3484C88.071 16.4244 88.0447 16.5188 88.0447 16.6317C88.0447 16.7232 88.0671 16.8118 88.1119 16.8974C88.1586 16.9831 88.2326 17.0541 88.3338 17.1106C88.437 17.167 88.5733 17.1953 88.7426 17.1953ZM92.2635 13.7262V13.2444H92.6927V13.7262H92.2635ZM92.2635 17.4785V14.3248H92.6927V17.4785H92.2635ZM95.8458 17.4785V15.8695C95.8458 15.6943 95.8293 15.5337 95.7962 15.3877C95.7631 15.2398 95.7096 15.1113 95.6356 15.0023C95.5636 14.8913 95.4691 14.8056 95.3523 14.7453C95.2375 14.6849 95.0973 14.6548 94.9318 14.6548C94.78 14.6548 94.6457 14.6811 94.5289 14.7336C94.414 14.7862 94.3167 14.8621 94.2369 14.9614C94.159 15.0587 94.0996 15.1775 94.0587 15.3176C94.0179 15.4578 93.9974 15.6174 93.9974 15.7965L93.6937 15.7294C93.6937 15.4062 93.7502 15.1346 93.8631 14.9147C93.976 14.6947 94.1317 14.5282 94.3303 14.4153C94.5289 14.3024 94.7566 14.246 95.0136 14.246C95.2024 14.246 95.3669 14.2752 95.5071 14.3336C95.6492 14.392 95.7689 14.4708 95.8663 14.5701C95.9656 14.6694 96.0454 14.7833 96.1057 14.9117C96.1661 15.0383 96.2099 15.1736 96.2371 15.3176C96.2644 15.4597 96.278 15.6019 96.278 15.744V17.4785H95.8458ZM93.5652 17.4785V14.3248H93.9536V15.1015H93.9974V17.4785H93.5652ZM98.2422 17.5661C97.9482 17.5661 97.6971 17.4931 97.4888 17.3471C97.2805 17.1992 97.1209 16.9996 97.0099 16.7485C96.899 16.4974 96.8435 16.2141 96.8435 15.8987C96.8435 15.5853 96.898 15.303 97.007 15.0519C97.118 14.8008 97.2766 14.6022 97.483 14.4562C97.6893 14.3102 97.9366 14.2372 98.2247 14.2372C98.5206 14.2372 98.7698 14.3092 98.9722 14.4533C99.1747 14.5973 99.3275 14.7949 99.4307 15.0461C99.5358 15.2952 99.5884 15.5795 99.5884 15.8987C99.5884 16.2122 99.5368 16.4954 99.4336 16.7485C99.3304 16.9996 99.1786 17.1992 98.9781 17.3471C98.7776 17.4931 98.5323 17.5661 98.2422 17.5661ZM98.286 17.1661C98.5099 17.1661 98.6948 17.1116 98.8408 17.0025C98.9868 16.8935 99.0958 16.7436 99.1679 16.5528C99.2399 16.3601 99.2759 16.1421 99.2759 15.8987C99.2759 15.6515 99.2399 15.4335 99.1679 15.2446C99.0958 15.0539 98.9868 14.9049 98.8408 14.7979C98.6968 14.6908 98.5147 14.6373 98.2948 14.6373C98.0689 14.6373 97.8821 14.6927 97.7341 14.8037C97.5862 14.9147 97.4762 15.0655 97.4041 15.2563C97.3341 15.4471 97.299 15.6612 97.299 15.8987C97.299 16.1382 97.335 16.3543 97.4071 16.547C97.481 16.7378 97.591 16.8887 97.737 16.9996C97.883 17.1106 98.066 17.1661 98.286 17.1661ZM99.2759 17.4785V15.1045H99.2292V13.2736H99.6614V17.4785H99.2759ZM100.539 13.7262V13.2444H100.968V13.7262H100.539ZM100.539 17.4785V14.3248H100.968V17.4785H100.539ZM101.844 17.4785V14.3248H102.229V15.084L102.153 14.9847C102.188 14.8913 102.234 14.8056 102.29 14.7278C102.347 14.648 102.408 14.5827 102.474 14.5321C102.556 14.4601 102.652 14.4056 102.761 14.3686C102.87 14.3297 102.98 14.3073 103.091 14.3014C103.202 14.2937 103.303 14.3014 103.394 14.3248V14.7278C103.279 14.6986 103.154 14.6918 103.018 14.7073C102.881 14.7229 102.756 14.7774 102.641 14.8709C102.536 14.9526 102.457 15.0509 102.404 15.1658C102.352 15.2787 102.317 15.3994 102.299 15.5279C102.282 15.6544 102.273 15.78 102.273 15.9046V17.4785H101.844ZM104.007 13.7262V13.2444H104.436V13.7262H104.007ZM104.007 17.4785V14.3248H104.436V17.4785H104.007ZM107.589 17.4785V15.8695C107.589 15.6943 107.572 15.5337 107.539 15.3877C107.506 15.2398 107.453 15.1113 107.379 15.0023C107.307 14.8913 107.212 14.8056 107.096 14.7453C106.981 14.6849 106.84 14.6548 106.675 14.6548C106.523 14.6548 106.389 14.6811 106.272 14.7336C106.157 14.7862 106.06 14.8621 105.98 14.9614C105.902 15.0587 105.843 15.1775 105.802 15.3176C105.761 15.4578 105.741 15.6174 105.741 15.7965L105.437 15.7294C105.437 15.4062 105.493 15.1346 105.606 14.9147C105.719 14.6947 105.875 14.5282 106.073 14.4153C106.272 14.3024 106.5 14.246 106.757 14.246C106.946 14.246 107.11 14.2752 107.25 14.3336C107.392 14.392 107.512 14.4708 107.609 14.5701C107.709 14.6694 107.789 14.7833 107.849 14.9117C107.909 15.0383 107.953 15.1736 107.98 15.3176C108.008 15.4597 108.021 15.6019 108.021 15.744V17.4785H107.589ZM105.308 17.4785V14.3248H105.697V15.1015H105.741V17.4785H105.308Z" fill="black"/>
<defs>
<filter id="filter0_ii_381_9784" x="12.6406" y="12.1652" width="20.9395" height="23.415" filterUnits="userSpaceOnUse" color-interpolation-filters="sRGB">
<feFlood flood-opacity="0" result="BackgroundImageFix"/>
<feBlend mode="normal" in="SourceGraphic" in2="BackgroundImageFix" result="shape"/>
<feColorMatrix in="SourceAlpha" type="matrix" values="0 0 0 0 0 0 0 0 0 0 0 0 0 0 0 0 0 0 127 0" result="hardAlpha"/>
<feOffset dy="-0.136558"/>
<feComposite in2="hardAlpha" operator="arithmetic" k2="-1" k3="1"/>
<feColorMatrix type="matrix" values="0 0 0 0 0 0 0 0 0 0 0 0 0 0 0 0 0 0 0.12 0"/>
<feBlend mode="normal" in2="shape" result="effect1_innerShadow_381_9784"/>
<feColorMatrix in="SourceAlpha" type="matrix" values="0 0 0 0 0 0 0 0 0 0 0 0 0 0 0 0 0 0 127 0" result="hardAlpha"/>
<feOffset dy="0.136558"/>
<feComposite in2="hardAlpha" operator="arithmetic" k2="-1" k3="1"/>
<feColorMatrix type="matrix" values="0 0 0 0 1 0 0 0 0 1 0 0 0 0 1 0 0 0 0.25 0"/>
<feBlend mode="normal" in2="effect1_innerShadow_381_9784" result="effect2_innerShadow_381_9784"/>
</filter>
<filter id="filter1_i_381_9784" x="13.0605" y="23.8721" width="15.1309" height="11.7081" filterUnits="userSpaceOnUse" color-interpolation-filters="sRGB">
<feFlood flood-opacity="0" result="BackgroundImageFix"/>
<feBlend mode="normal" in="SourceGraphic" in2="BackgroundImageFix" result="shape"/>
<feColorMatrix in="SourceAlpha" type="matrix" values="0 0 0 0 0 0 0 0 0 0 0 0 0 0 0 0 0 0 127 0" result="hardAlpha"/>
<feOffset dy="-0.136558"/>
<feComposite in2="hardAlpha" operator="arithmetic" k2="-1" k3="1"/>
<feColorMatrix type="matrix" values="0 0 0 0 0 0 0 0 0 0 0 0 0 0 0 0 0 0 0.08 0"/>
<feBlend mode="normal" in2="shape" result="effect1_innerShadow_381_9784"/>
</filter>
<linearGradient id="paint0_linear_381_9784" x1="23.3666" y1="13.5925" x2="8.08864" y2="28.8111" gradientUnits="userSpaceOnUse">
<stop stop-color="#00A0FF"/>
<stop offset="0.0066" stop-color="#00A1FF"/>
<stop offset="0.2601" stop-color="#00BEFF"/>
<stop offset="0.5122" stop-color="#00D2FF"/>
<stop offset="0.7604" stop-color="#00DFFF"/>
<stop offset="1" stop-color="#00E3FF"/>
</linearGradient>
<linearGradient id="paint1_linear_381_9784" x1="34.2792" y1="23.8723" x2="12.3372" y2="23.8723" gradientUnits="userSpaceOnUse">
<stop stop-color="#FFE000"/>
<stop offset="0.4087" stop-color="#FFBD00"/>
<stop offset="0.7754" stop-color="#FFA500"/>
<stop offset="1" stop-color="#FF9C00"/>
</linearGradient>
<linearGradient id="paint2_linear_381_9784" x1="26.112" y1="25.9604" x2="5.39311" y2="46.5987" gradientUnits="userSpaceOnUse">
<stop stop-color="#FF3A44"/>
<stop offset="1" stop-color="#C31162"/>
</linearGradient>
<linearGradient id="paint3_linear_381_9784" x1="10.2143" y1="5.82512" x2="19.4659" y2="15.0407" gradientUnits="userSpaceOnUse">
<stop stop-color="#32A071"/>
<stop offset="0.0685" stop-color="#2DA771"/>
<stop offset="0.4762" stop-color="#15CF74"/>
<stop offset="0.8009" stop-color="#06E775"/>
<stop offset="1" stop-color="#00F076"/>
</linearGradient>
</defs>
</svg>
