<svg width="127" height="48" viewBox="0 0 127 48" fill="none" xmlns="http://www.w3.org/2000/svg">
<rect x="0.742343" y="0.742343" width="125.592" height="46.0346" rx="7.1285" fill="white" stroke="#090909" stroke-width="0.515313"/>
<path d="M29.67 24.4499C29.6947 22.5267 30.7235 20.707 32.3556 19.6997C31.326 18.2235 29.6014 17.2875 27.8072 17.2311C25.8935 17.0295 24.0382 18.3807 23.063 18.3807C22.069 18.3807 20.5675 17.2512 18.9507 17.2845C16.8433 17.3529 14.8786 18.5558 13.8533 20.4054C11.6492 24.2362 13.2932 29.8663 15.4045 32.9628C16.4608 34.4791 17.6954 36.1729 19.3107 36.1128C20.8914 36.047 21.4818 35.1009 23.3899 35.1009C25.2802 35.1009 25.8341 36.1128 27.4823 36.0746C29.1785 36.047 30.2471 34.5516 31.2664 33.0209C32.0254 31.9405 32.6094 30.7464 32.9968 29.4829C31.0035 28.6365 29.6723 26.6227 29.67 24.4499Z" fill="#090909"/>
<path d="M26.5569 15.1947C27.4818 14.0801 27.9374 12.6475 27.8271 11.2012C26.4141 11.3502 25.109 12.0281 24.1716 13.0999C23.255 14.1471 22.778 15.5545 22.8682 16.9455C24.2817 16.9602 25.6712 16.3006 26.5569 15.1947Z" fill="#090909"/>
<path d="M86.0497 22.4632V24.7937H84.5946V26.322H86.0497V31.5149C86.0497 33.2881 86.8487 33.9974 88.8589 33.9974C89.2122 33.9974 89.5486 33.9552 89.843 33.9045V32.3931C89.5907 32.4184 89.4309 32.4353 89.1533 32.4353C88.2533 32.4353 87.858 32.0131 87.858 31.0505V26.322H89.843V24.7937H87.858V22.4632H86.0497Z" fill="#090909"/>
<path d="M94.9639 34.124C97.6386 34.124 99.2787 32.3255 99.2787 29.3449C99.2787 26.3811 97.6302 24.5742 94.9639 24.5742C92.2892 24.5742 90.6407 26.3811 90.6407 29.3449C90.6407 32.3255 92.2808 34.124 94.9639 34.124ZM94.9639 32.5113C93.3911 32.5113 92.5079 31.3545 92.5079 29.3449C92.5079 27.3522 93.3911 26.1869 94.9639 26.1869C96.5283 26.1869 97.4199 27.3522 97.4199 29.3449C97.4199 31.346 96.5283 32.5113 94.9639 32.5113Z" fill="#090909"/>
<path d="M100.682 33.9467H102.49V28.5174C102.49 27.2255 103.458 26.3558 104.829 26.3558C105.148 26.3558 105.686 26.4149 105.838 26.4656V24.6755C105.644 24.6248 105.3 24.5995 105.03 24.5995C103.836 24.5995 102.818 25.2581 102.558 26.1616H102.423V24.7515H100.682V33.9467Z" fill="#090909"/>
<path d="M110.328 26.1194C111.665 26.1194 112.54 27.0566 112.582 28.5005H107.956C108.057 27.0651 108.991 26.1194 110.328 26.1194ZM112.574 31.4643C112.237 32.182 111.489 32.5788 110.395 32.5788C108.949 32.5788 108.015 31.5571 107.956 29.9444V29.8431H114.424V29.2098C114.424 26.322 112.885 24.5742 110.336 24.5742C107.754 24.5742 106.114 26.4402 106.114 29.3787C106.114 32.3171 107.721 34.124 110.345 34.124C112.439 34.124 113.903 33.1108 114.315 31.4643H112.574Z" fill="#090909"/>
<path d="M74.1908 30.5511C74.3303 32.809 76.2046 34.253 78.9942 34.253C81.9757 34.253 83.8413 32.739 83.8413 30.3235C83.8413 28.4244 82.7777 27.3742 80.1973 26.7703L78.8112 26.429C77.1722 26.0439 76.5097 25.5276 76.5097 24.6262C76.5097 23.4884 77.5384 22.7446 79.0814 22.7446C80.546 22.7446 81.5572 23.4709 81.7403 24.6349H83.6408C83.5274 22.5083 81.6618 21.0117 79.1076 21.0117C76.3615 21.0117 74.5308 22.5083 74.5308 24.7574C74.5308 26.6128 75.5682 27.7155 77.8435 28.2494L79.465 28.6432C81.1301 29.037 81.8624 29.6146 81.8624 30.5773C81.8624 31.6975 80.7116 32.5114 79.1424 32.5114C77.4599 32.5114 76.2918 31.75 76.1261 30.5511H74.1908Z" fill="#090909"/>
<path d="M55.4582 24.5995C54.2134 24.5995 53.1368 25.2243 52.5816 26.2714H52.4471V24.7515H50.706V37.0034H52.5144V32.5535H52.6573C53.1368 33.5245 54.1713 34.0987 55.475 34.0987C57.788 34.0987 59.2599 32.2664 59.2599 29.3449C59.2599 26.4233 57.788 24.5995 55.4582 24.5995ZM54.9451 32.4691C53.4311 32.4691 52.4807 31.2701 52.4807 29.3533C52.4807 27.4282 53.4311 26.2291 54.9535 26.2291C56.4843 26.2291 57.4011 27.4028 57.4011 29.3449C57.4011 31.2954 56.4843 32.4691 54.9451 32.4691Z" fill="#090909"/>
<path d="M65.5876 24.5995C64.3428 24.5995 63.2662 25.2243 62.7111 26.2714H62.5765V24.7515H60.8354V37.0034H62.6438V32.5535H62.7868C63.2662 33.5245 64.3007 34.0987 65.6044 34.0987C67.9174 34.0987 69.3893 32.2664 69.3893 29.3449C69.3893 26.4233 67.9174 24.5995 65.5876 24.5995ZM65.0745 32.4691C63.5606 32.4691 62.6102 31.2701 62.6102 29.3533C62.6102 27.4282 63.5606 26.2291 65.083 26.2291C66.6137 26.2291 67.5305 27.4028 67.5305 29.3449C67.5305 31.2954 66.6137 32.4691 65.0745 32.4691Z" fill="#090909"/>
<path d="M47.4615 33.9467H49.5363L44.9944 21.318H42.8935L38.3516 33.9467H40.3566L41.5161 30.5948H46.3108L47.4615 33.9467ZM43.8437 23.611H43.9919L45.8139 28.9495H42.013L43.8437 23.611Z" fill="#090909"/>
<path d="M40.0576 19.3948C39.9875 19.3948 39.9214 19.3861 39.8591 19.3685C39.7987 19.351 39.7413 19.3296 39.6868 19.3043L39.7977 19.0064C39.8873 19.0415 39.9622 19.059 40.0226 19.059C40.0985 19.059 40.1569 19.0347 40.1978 18.986C40.2406 18.9393 40.262 18.8877 40.262 18.8312C40.262 18.7417 40.2221 18.6765 40.1423 18.6356C40.0625 18.5967 39.9729 18.5626 39.8737 18.5334L40.0897 17.9318H40.408L40.2591 18.3407C40.3642 18.3874 40.4489 18.4506 40.5132 18.5305C40.5793 18.6122 40.6124 18.7164 40.6124 18.8429C40.6124 19.0006 40.557 19.132 40.446 19.2371C40.337 19.3423 40.2075 19.3948 40.0576 19.3948ZM40.1423 18.0808C39.8483 18.0808 39.5836 18.0321 39.348 17.9348C39.1144 17.8355 38.9207 17.6953 38.7669 17.5143C38.6151 17.3332 38.5158 17.1181 38.4691 16.8689L38.9071 16.7959C38.9772 17.0685 39.1251 17.2826 39.351 17.4383C39.5768 17.5921 39.8464 17.669 40.1598 17.669C40.3662 17.669 40.5511 17.6369 40.7146 17.5727C40.8782 17.5065 41.0067 17.413 41.1001 17.2923C41.1935 17.1716 41.2403 17.0286 41.2403 16.8631C41.2403 16.7541 41.2208 16.6616 41.1819 16.5857C41.1429 16.5078 41.0913 16.4436 41.0271 16.3929C40.9629 16.3423 40.8928 16.3005 40.8169 16.2674C40.7409 16.2323 40.667 16.2041 40.5949 16.1827L39.5291 15.8644C39.4006 15.8274 39.2818 15.7807 39.1728 15.7242C39.0638 15.6658 38.9684 15.5967 38.8867 15.5169C38.8068 15.4351 38.7445 15.3398 38.6998 15.2307C38.655 15.1217 38.6326 14.9971 38.6326 14.857C38.6326 14.6195 38.6949 14.4141 38.8195 14.2408C38.9441 14.0676 39.1144 13.9342 39.3305 13.8408C39.5466 13.7473 39.7929 13.7016 40.0693 13.7035C40.3496 13.7035 40.5998 13.7532 40.8198 13.8525C41.0417 13.9517 41.2247 14.0938 41.3688 14.2788C41.5128 14.4618 41.6082 14.6788 41.6549 14.93L41.2052 15.0117C41.176 14.8287 41.1089 14.6701 41.0037 14.5358C40.8986 14.4014 40.7643 14.2983 40.6008 14.2262C40.4392 14.1522 40.2611 14.1143 40.0664 14.1123C39.8776 14.1123 39.7092 14.1445 39.5612 14.2087C39.4152 14.271 39.2994 14.3567 39.2137 14.4657C39.1281 14.5747 39.0852 14.6993 39.0852 14.8394C39.0852 14.9816 39.1242 15.0954 39.202 15.1811C39.2818 15.2668 39.3792 15.3339 39.494 15.3826C39.6108 15.4313 39.7238 15.4712 39.8328 15.5023L40.6562 15.7447C40.7419 15.768 40.8422 15.8021 40.957 15.8469C41.0738 15.8897 41.1867 15.952 41.2957 16.0338C41.4067 16.1136 41.4982 16.2187 41.5702 16.3491C41.6423 16.4796 41.6783 16.645 41.6783 16.8456C41.6783 17.0402 41.6393 17.2145 41.5615 17.3683C41.4856 17.5221 41.3775 17.6515 41.2373 17.7566C41.0991 17.8618 40.9366 17.9416 40.7497 17.9961C40.5647 18.0525 40.3623 18.0808 40.1423 18.0808ZM42.3395 14.2408V13.759H42.7687V14.2408H42.3395ZM42.3395 17.9932V14.8394H42.7687V17.9932H42.3395ZM47.4053 17.9932L47.4082 15.9228C47.4082 15.6795 47.34 15.4887 47.2038 15.3505C47.0694 15.2103 46.8981 15.1402 46.6898 15.1402C46.5711 15.1402 46.4552 15.1675 46.3423 15.222C46.2294 15.2765 46.136 15.3641 46.062 15.4848C45.99 15.6055 45.954 15.7632 45.954 15.9578L45.6999 15.8848C45.6941 15.659 45.7379 15.4614 45.8313 15.2921C45.9267 15.1227 46.0571 14.9913 46.2226 14.8978C46.39 14.8025 46.5789 14.7548 46.7891 14.7548C47.1064 14.7548 47.3605 14.8531 47.5513 15.0497C47.742 15.2444 47.8374 15.5082 47.8374 15.841L47.8345 17.9932H47.4053ZM43.6412 17.9932V14.8394H44.0267V15.6162H44.0734V17.9932H43.6412ZM45.5276 17.9932L45.5305 15.952C45.5305 15.7009 45.4634 15.5033 45.3291 15.3592C45.1967 15.2132 45.0215 15.1402 44.8034 15.1402C44.5854 15.1402 44.4092 15.2152 44.2749 15.3651C44.1406 15.513 44.0734 15.7106 44.0734 15.9578L43.8164 15.8177C43.8164 15.6152 43.8641 15.4342 43.9595 15.2745C44.0549 15.113 44.1853 14.9864 44.3508 14.8949C44.5163 14.8015 44.7042 14.7548 44.9144 14.7548C45.1149 14.7548 45.293 14.7976 45.4488 14.8832C45.6065 14.9689 45.7301 15.0935 45.8196 15.257C45.9092 15.4205 45.954 15.6191 45.954 15.8527L45.951 17.9932H45.5276ZM49.8011 18.0808C49.5071 18.0808 49.256 18.0078 49.0477 17.8618C48.8394 17.7138 48.6797 17.5143 48.5688 17.2631C48.4578 17.012 48.4023 16.7288 48.4023 16.4134C48.4023 16.1 48.4568 15.8177 48.5659 15.5666C48.6768 15.3154 48.8355 15.1169 49.0418 14.9709C49.2482 14.8248 49.4954 14.7518 49.7835 14.7518C50.0794 14.7518 50.3286 14.8239 50.5311 14.9679C50.7336 15.112 50.8864 15.3096 50.9895 15.5607C51.0947 15.8099 51.1472 16.0941 51.1472 16.4134C51.1472 16.7268 51.0956 17.0101 50.9925 17.2631C50.8893 17.5143 50.7374 17.7138 50.5369 17.8618C50.3364 18.0078 50.0911 18.0808 49.8011 18.0808ZM49.8449 17.6807C50.0687 17.6807 50.2537 17.6262 50.3997 17.5172C50.5457 17.4082 50.6547 17.2583 50.7267 17.0675C50.7988 16.8748 50.8348 16.6567 50.8348 16.4134C50.8348 16.1661 50.7988 15.9481 50.7267 15.7593C50.6547 15.5685 50.5457 15.4196 50.3997 15.3125C50.2556 15.2054 50.0736 15.1519 49.8536 15.1519C49.6278 15.1519 49.4409 15.2074 49.293 15.3183C49.145 15.4293 49.035 15.5802 48.963 15.771C48.8929 15.9617 48.8579 16.1759 48.8579 16.4134C48.8579 16.6528 48.8939 16.8689 48.9659 17.0616C49.0399 17.2524 49.1499 17.4033 49.2959 17.5143C49.4419 17.6252 49.6249 17.6807 49.8449 17.6807ZM50.8348 17.9932V15.6191H50.7881V13.7882H51.2202V17.9932H50.8348ZM52.0979 14.2408V13.759H52.5271V14.2408H52.0979ZM52.0979 17.9932V14.8394H52.5271V17.9932H52.0979ZM56.2888 17.9932C56.1116 18.0302 55.9364 18.0448 55.7631 18.037C55.5918 18.0292 55.438 17.9922 55.3018 17.926C55.1674 17.8598 55.0652 17.7566 54.9952 17.6165C54.9387 17.4997 54.9076 17.3819 54.9017 17.2631C54.8978 17.1424 54.8959 17.0052 54.8959 16.8514V13.9634H55.3222V16.8339C55.3222 16.9663 55.3232 17.0772 55.3251 17.1668C55.329 17.2544 55.3495 17.3322 55.3865 17.4004C55.4565 17.5308 55.5675 17.6087 55.7193 17.634C55.8731 17.6593 56.0629 17.6535 56.2888 17.6165V17.9932ZM54.2213 15.2074V14.8394H56.2888V15.2074H54.2213ZM58.1305 18.0808C57.8229 18.0808 57.5562 18.0126 57.3304 17.8764C57.1065 17.7401 56.9323 17.5483 56.8077 17.3011C56.6831 17.0539 56.6208 16.7638 56.6208 16.4309C56.6208 16.0863 56.6822 15.7885 56.8048 15.5374C56.9274 15.2862 57.0997 15.0925 57.3217 14.9563C57.5455 14.82 57.8093 14.7518 58.113 14.7518C58.4245 14.7518 58.6902 14.8239 58.9102 14.9679C59.1302 15.11 59.2966 15.3145 59.4095 15.5812C59.5225 15.8479 59.574 16.1662 59.5643 16.536H59.1263V16.3842C59.1185 15.9754 59.0299 15.6668 58.8606 15.4585C58.6931 15.2502 58.4479 15.1461 58.1247 15.1461C57.786 15.1461 57.5261 15.256 57.345 15.476C57.1659 15.696 57.0764 16.0094 57.0764 16.4163C57.0764 16.8134 57.1659 17.122 57.345 17.342C57.5261 17.56 57.7821 17.669 58.113 17.669C58.3388 17.669 58.5355 17.6174 58.7029 17.5143C58.8722 17.4091 59.0056 17.2583 59.1029 17.0616L59.503 17.2164C59.3784 17.4909 59.1944 17.7041 58.9511 17.8559C58.7097 18.0058 58.4362 18.0808 58.1305 18.0808ZM56.9245 16.536V16.1769H59.3336V16.536H56.9245ZM60.2707 17.9932V13.7006H60.7V17.9932H60.2707ZM62.9099 18.0808C62.6023 18.0808 62.3356 18.0126 62.1098 17.8764C61.8859 17.7401 61.7117 17.5483 61.5871 17.3011C61.4625 17.0539 61.4002 16.7638 61.4002 16.4309C61.4002 16.0863 61.4616 15.7885 61.5842 15.5374C61.7068 15.2862 61.8791 15.0925 62.1011 14.9563C62.3249 14.82 62.5887 14.7518 62.8924 14.7518C63.2039 14.7518 63.4696 14.8239 63.6896 14.9679C63.9096 15.11 64.076 15.3145 64.1889 15.5812C64.3018 15.8479 64.3534 16.1662 64.3437 16.536H63.9057V16.3842C63.8979 15.9754 63.8093 15.6668 63.64 15.4585C63.4725 15.2502 63.2272 15.1461 62.9041 15.1461C62.5654 15.1461 62.3055 15.256 62.1244 15.476C61.9453 15.696 61.8558 16.0094 61.8558 16.4163C61.8558 16.8134 61.9453 17.122 62.1244 17.342C62.3055 17.56 62.5615 17.669 62.8924 17.669C63.1182 17.669 63.3148 17.6174 63.4823 17.5143C63.6516 17.4091 63.785 17.2583 63.8823 17.0616L64.2824 17.2164C64.1578 17.4909 63.9738 17.7041 63.7305 17.8559C63.4891 18.0058 63.2156 18.0808 62.9099 18.0808ZM61.7039 16.536V16.1769H64.113V16.536H61.7039ZM65.3042 17.9932V14.6058C65.3042 14.5241 65.3081 14.4433 65.3159 14.3635C65.3256 14.2837 65.3441 14.2077 65.3714 14.1357C65.3986 14.0617 65.4414 13.9936 65.4998 13.9313C65.5641 13.8612 65.6342 13.8106 65.7101 13.7794C65.786 13.7464 65.8648 13.7249 65.9466 13.7152C66.0303 13.7055 66.1121 13.7006 66.1919 13.7006H66.5949V14.0627H66.2211C66.0576 14.0627 65.9349 14.1026 65.8532 14.1824C65.7734 14.2622 65.7334 14.3878 65.7334 14.5591V17.9932H65.3042ZM64.7581 15.2074V14.8394H66.5949V15.2074H64.7581ZM68.2649 18.0808C67.9515 18.0808 67.6838 18.0097 67.4619 17.8676C67.24 17.7255 67.0697 17.5289 66.9509 17.2777C66.8321 17.0266 66.7728 16.7385 66.7728 16.4134C66.7728 16.0824 66.8331 15.7924 66.9538 15.5432C67.0745 15.294 67.2458 15.1003 67.4678 14.9621C67.6916 14.8219 67.9574 14.7518 68.2649 14.7518C68.5803 14.7518 68.849 14.8229 69.0709 14.965C69.2948 15.1052 69.4651 15.3008 69.5819 15.552C69.7007 15.8011 69.76 16.0883 69.76 16.4134C69.76 16.7443 69.7007 17.0354 69.5819 17.2865C69.4632 17.5357 69.2919 17.7304 69.068 17.8705C68.8441 18.0107 68.5764 18.0808 68.2649 18.0808ZM68.2649 17.669C68.6154 17.669 68.8762 17.5532 69.0475 17.3215C69.2189 17.0879 69.3045 16.7852 69.3045 16.4134C69.3045 16.0318 69.2179 15.7281 69.0446 15.5023C68.8733 15.2765 68.6134 15.1636 68.2649 15.1636C68.0294 15.1636 67.8347 15.2171 67.6809 15.3242C67.5291 15.4293 67.4152 15.5763 67.3393 15.7651C67.2653 15.952 67.2283 16.1681 67.2283 16.4134C67.2283 16.793 67.3159 17.0977 67.4911 17.3274C67.6663 17.5551 67.9243 17.669 68.2649 17.669ZM72.6819 17.9932V16.3842C72.6819 16.209 72.6653 16.0484 72.6322 15.9024C72.5992 15.7544 72.5456 15.6259 72.4716 15.5169C72.3996 15.4059 72.3052 15.3203 72.1884 15.2599C72.0735 15.1996 71.9334 15.1694 71.7679 15.1694C71.616 15.1694 71.4817 15.1957 71.3649 15.2483C71.2501 15.3008 71.1527 15.3767 71.0729 15.476C70.995 15.5734 70.9357 15.6921 70.8948 15.8323C70.8539 15.9724 70.8335 16.1321 70.8335 16.3112L70.5298 16.244C70.5298 15.9209 70.5862 15.6493 70.6991 15.4293C70.812 15.2093 70.9678 15.0429 71.1664 14.93C71.3649 14.8171 71.5927 14.7606 71.8497 14.7606C72.0385 14.7606 72.203 14.7898 72.3432 14.8482C72.4853 14.9066 72.605 14.9855 72.7023 15.0847C72.8016 15.184 72.8814 15.2979 72.9418 15.4264C73.0021 15.5529 73.0459 15.6882 73.0732 15.8323C73.1004 15.9744 73.1141 16.1165 73.1141 16.2586V17.9932H72.6819ZM70.4013 17.9932V14.8394H70.7897V15.6162H70.8335V17.9932H70.4013ZM75.0778 18.072C74.889 18.072 74.7235 18.0428 74.5814 17.9844C74.4413 17.926 74.3215 17.8472 74.2222 17.7479C74.1249 17.6486 74.0461 17.5357 73.9857 17.4091C73.9254 17.2807 73.8816 17.1454 73.8543 17.0032C73.8271 16.8592 73.8134 16.7161 73.8134 16.574V14.8394H74.2456V16.4484C74.2456 16.6217 74.2622 16.7823 74.2952 16.9302C74.3283 17.0782 74.3809 17.2077 74.4529 17.3186C74.5269 17.4276 74.6213 17.5123 74.7362 17.5727C74.853 17.633 74.9941 17.6632 75.1596 17.6632C75.3114 17.6632 75.4448 17.6369 75.5597 17.5843C75.6765 17.5318 75.7738 17.4568 75.8517 17.3595C75.9315 17.2602 75.9918 17.1405 76.0327 17.0003C76.0736 16.8582 76.094 16.6986 76.094 16.5214L76.3977 16.5886C76.3977 16.9118 76.3413 17.1833 76.2284 17.4033C76.1154 17.6233 75.9597 17.7897 75.7611 17.9026C75.5626 18.0156 75.3348 18.072 75.0778 18.072ZM76.1378 17.9932V17.2164H76.094V14.8394H76.5233V17.9932H76.1378ZM79.6171 17.9932V16.3842C79.6171 16.209 79.6006 16.0484 79.5675 15.9024C79.5344 15.7544 79.4809 15.6259 79.4069 15.5169C79.3349 15.4059 79.2404 15.3203 79.1236 15.2599C79.0088 15.1996 78.8686 15.1694 78.7031 15.1694C78.5513 15.1694 78.417 15.1957 78.3002 15.2483C78.1853 15.3008 78.088 15.3767 78.0082 15.476C77.9303 15.5734 77.8709 15.6921 77.83 15.8323C77.7892 15.9724 77.7687 16.1321 77.7687 16.3112L77.465 16.244C77.465 15.9209 77.5215 15.6493 77.6344 15.4293C77.7473 15.2093 77.903 15.0429 78.1016 14.93C78.3002 14.8171 78.5279 14.7606 78.7849 14.7606C78.9737 14.7606 79.1382 14.7898 79.2784 14.8482C79.4205 14.9066 79.5402 14.9855 79.6376 15.0847C79.7369 15.184 79.8167 15.2979 79.877 15.4264C79.9374 15.5529 79.9812 15.6882 80.0084 15.8323C80.0357 15.9744 80.0493 16.1165 80.0493 16.2586V17.9932H79.6171ZM77.3365 17.9932V14.8394H77.7249V15.6162H77.7687V17.9932H77.3365ZM82.0131 18.072C81.8243 18.072 81.6588 18.0428 81.5167 17.9844C81.3765 17.926 81.2568 17.8472 81.1575 17.7479C81.0602 17.6486 80.9813 17.5357 80.921 17.4091C80.8606 17.2807 80.8168 17.1454 80.7896 17.0032C80.7623 16.8592 80.7487 16.7161 80.7487 16.574V14.8394H81.1809V16.4484C81.1809 16.6217 81.1974 16.7823 81.2305 16.9302C81.2636 17.0782 81.3162 17.2077 81.3882 17.3186C81.4622 17.4276 81.5566 17.5123 81.6714 17.5727C81.7882 17.633 81.9294 17.6632 82.0949 17.6632C82.2467 17.6632 82.38 17.6369 82.4949 17.5843C82.6117 17.5318 82.709 17.4568 82.7869 17.3595C82.8667 17.2602 82.9271 17.1405 82.968 17.0003C83.0088 16.8582 83.0293 16.6986 83.0293 16.5214L83.333 16.5886C83.333 16.9118 83.2765 17.1833 83.1636 17.4033C83.0507 17.6233 82.895 17.7897 82.6964 17.9026C82.4978 18.0156 82.2701 18.072 82.0131 18.072ZM83.0731 17.9932V17.2164H83.0293V14.8394H83.4585V17.9932H83.0731ZM83.9827 17.9932V17.9026L86.018 15.2395H84.1345V14.8394H86.7247V14.9387L84.6923 17.5931H86.6137V17.9932H83.9827ZM88.0914 18.0808C87.8539 18.0808 87.6544 18.0379 87.4928 17.9523C87.3332 17.8666 87.2135 17.7527 87.1336 17.6106C87.0538 17.4685 87.0139 17.3138 87.0139 17.1463C87.0139 16.975 87.048 16.829 87.1161 16.7083C87.1862 16.5857 87.2806 16.4854 87.3994 16.4075C87.5201 16.3297 87.6593 16.2703 87.8169 16.2294C87.9766 16.1905 88.1528 16.1564 88.3455 16.1272C88.5402 16.0961 88.73 16.0698 88.9149 16.0484C89.1018 16.025 89.2653 16.0026 89.4055 15.9812L89.2536 16.0747C89.2595 15.7632 89.1991 15.5325 89.0726 15.3826C88.9461 15.2327 88.7261 15.1577 88.4126 15.1577C88.1966 15.1577 88.0136 15.2064 87.8637 15.3037C87.7157 15.4011 87.6116 15.5549 87.5512 15.7651L87.1336 15.6425C87.2057 15.3602 87.3507 15.1412 87.5687 14.9855C87.7868 14.8297 88.07 14.7518 88.4185 14.7518C88.7066 14.7518 88.9509 14.8064 89.1514 14.9154C89.3539 15.0224 89.497 15.1782 89.5807 15.3826C89.6196 15.4741 89.6449 15.5763 89.6566 15.6892C89.6683 15.8021 89.6741 15.917 89.6741 16.0338V17.9932H89.2916V17.2018L89.4026 17.2485C89.2955 17.5191 89.129 17.7255 88.9032 17.8676C88.6774 18.0097 88.4068 18.0808 88.0914 18.0808ZM88.1411 17.7099C88.3416 17.7099 88.5168 17.6739 88.6667 17.6019C88.8166 17.5298 88.9373 17.4315 89.0288 17.3069C89.1203 17.1804 89.1797 17.0383 89.2069 16.8806C89.2303 16.7794 89.2429 16.6684 89.2449 16.5477C89.2468 16.4251 89.2478 16.3336 89.2478 16.2732L89.4113 16.3579C89.2653 16.3774 89.1067 16.3968 88.9353 16.4163C88.766 16.4358 88.5986 16.4582 88.4331 16.4835C88.2696 16.5088 88.1216 16.539 87.9892 16.574C87.8997 16.5993 87.813 16.6353 87.7293 16.682C87.6456 16.7268 87.5765 16.7872 87.522 16.8631C87.4694 16.939 87.4432 17.0334 87.4432 17.1463C87.4432 17.2378 87.4656 17.3264 87.5103 17.4121C87.5571 17.4977 87.631 17.5688 87.7323 17.6252C87.8354 17.6817 87.9717 17.7099 88.1411 17.7099ZM91.6619 14.2408V13.759H92.0912V14.2408H91.6619ZM91.6619 17.9932V14.8394H92.0912V17.9932H91.6619ZM95.2443 17.9932V16.3842C95.2443 16.209 95.2277 16.0484 95.1946 15.9024C95.1615 15.7544 95.108 15.6259 95.034 15.5169C94.962 15.4059 94.8676 15.3203 94.7508 15.2599C94.6359 15.1996 94.4958 15.1694 94.3303 15.1694C94.1784 15.1694 94.0441 15.1957 93.9273 15.2483C93.8125 15.3008 93.7151 15.3767 93.6353 15.476C93.5574 15.5734 93.4981 15.6921 93.4572 15.8323C93.4163 15.9724 93.3959 16.1321 93.3959 16.3112L93.0922 16.244C93.0922 15.9209 93.1486 15.6493 93.2615 15.4293C93.3744 15.2093 93.5302 15.0429 93.7287 14.93C93.9273 14.8171 94.1551 14.7606 94.412 14.7606C94.6009 14.7606 94.7654 14.7898 94.9055 14.8482C95.0477 14.9066 95.1674 14.9855 95.2647 15.0847C95.364 15.184 95.4438 15.2979 95.5042 15.4264C95.5645 15.5529 95.6083 15.6882 95.6356 15.8323C95.6628 15.9744 95.6765 16.1165 95.6765 16.2586V17.9932H95.2443ZM92.9637 17.9932V14.8394H93.3521V15.6162H93.3959V17.9932H92.9637ZM97.6406 18.0808C97.3467 18.0808 97.0956 18.0078 96.8873 17.8618C96.679 17.7138 96.5193 17.5143 96.4084 17.2631C96.2974 17.012 96.2419 16.7288 96.2419 16.4134C96.2419 16.1 96.2964 15.8177 96.4054 15.5666C96.5164 15.3154 96.6751 15.1169 96.8814 14.9709C97.0878 14.8248 97.335 14.7518 97.6231 14.7518C97.919 14.7518 98.1682 14.8239 98.3707 14.9679C98.5731 15.112 98.7259 15.3096 98.8291 15.5607C98.9342 15.8099 98.9868 16.0941 98.9868 16.4134C98.9868 16.7268 98.9352 17.0101 98.832 17.2631C98.7289 17.5143 98.577 17.7138 98.3765 17.8618C98.176 18.0078 97.9307 18.0808 97.6406 18.0808ZM97.6844 17.6807C97.9083 17.6807 98.0933 17.6262 98.2393 17.5172C98.3853 17.4082 98.4943 17.2583 98.5663 17.0675C98.6383 16.8748 98.6744 16.6567 98.6744 16.4134C98.6744 16.1661 98.6383 15.9481 98.5663 15.7593C98.4943 15.5685 98.3853 15.4196 98.2393 15.3125C98.0952 15.2054 97.9132 15.1519 97.6932 15.1519C97.4674 15.1519 97.2805 15.2074 97.1325 15.3183C96.9846 15.4293 96.8746 15.5802 96.8026 15.771C96.7325 15.9617 96.6974 16.1759 96.6974 16.4134C96.6974 16.6528 96.7335 16.8689 96.8055 17.0616C96.8795 17.2524 96.9895 17.4033 97.1355 17.5143C97.2815 17.6252 97.4645 17.6807 97.6844 17.6807ZM98.6744 17.9932V15.6191H98.6276V13.7882H99.0598V17.9932H98.6744ZM99.9374 14.2408V13.759H100.367V14.2408H99.9374ZM99.9374 17.9932V14.8394H100.367V17.9932H99.9374ZM101.242 17.9932V14.8394H101.628V15.5987L101.552 15.4994C101.587 15.4059 101.632 15.3203 101.689 15.2424C101.745 15.1626 101.807 15.0974 101.873 15.0468C101.955 14.9747 102.05 14.9202 102.159 14.8832C102.268 14.8443 102.378 14.8219 102.489 14.8161C102.6 14.8083 102.701 14.8161 102.793 14.8394V15.2424C102.678 15.2132 102.552 15.2064 102.416 15.222C102.28 15.2376 102.154 15.2921 102.039 15.3855C101.934 15.4673 101.855 15.5656 101.803 15.6804C101.75 15.7933 101.715 15.914 101.698 16.0425C101.68 16.1691 101.671 16.2946 101.671 16.4192V17.9932H101.242ZM103.405 14.2408V13.759H103.834V14.2408H103.405ZM103.405 17.9932V14.8394H103.834V17.9932H103.405ZM106.987 17.9932V16.3842C106.987 16.209 106.971 16.0484 106.938 15.9024C106.905 15.7544 106.851 15.6259 106.777 15.5169C106.705 15.4059 106.611 15.3203 106.494 15.2599C106.379 15.1996 106.239 15.1694 106.073 15.1694C105.922 15.1694 105.787 15.1957 105.67 15.2483C105.556 15.3008 105.458 15.3767 105.378 15.476C105.301 15.5734 105.241 15.6921 105.2 15.8323C105.159 15.9724 105.139 16.1321 105.139 16.3112L104.835 16.244C104.835 15.9209 104.892 15.6493 105.005 15.4293C105.118 15.2093 105.273 15.0429 105.472 14.93C105.67 14.8171 105.898 14.7606 106.155 14.7606C106.344 14.7606 106.509 14.7898 106.649 14.8482C106.791 14.9066 106.911 14.9855 107.008 15.0847C107.107 15.184 107.187 15.2979 107.247 15.4264C107.308 15.5529 107.351 15.6882 107.379 15.8323C107.406 15.9744 107.42 16.1165 107.42 16.2586V17.9932H106.987ZM104.707 17.9932V14.8394H105.095V15.6162H105.139V17.9932H104.707Z" fill="black"/>
</svg>
