<svg width="19" height="18" viewBox="0 0 19 18" fill="none" xmlns="http://www.w3.org/2000/svg">
<path d="M8.59857 0.464973C8.66735 0.325419 8.77381 0.207903 8.90592 0.125728C9.03802 0.0435522 9.1905 0 9.34608 0C9.50165 0 9.65413 0.0435522 9.78623 0.125728C9.91834 0.207903 10.0248 0.325419 10.0936 0.464973L12.3352 5.00914C12.3951 5.1304 12.4836 5.23527 12.5931 5.31469C12.7026 5.3941 12.8297 5.44568 12.9636 5.46497L17.9786 6.19331C18.1325 6.21566 18.2771 6.28064 18.396 6.38089C18.5149 6.48115 18.6034 6.61268 18.6514 6.76061C18.6994 6.90854 18.7051 7.06695 18.6678 7.21794C18.6305 7.36893 18.5517 7.50646 18.4402 7.61497L14.8111 11.1525C14.7144 11.2468 14.6422 11.3632 14.6005 11.4917C14.5588 11.6202 14.549 11.7569 14.5719 11.89L15.4286 16.8841C15.4548 17.0374 15.4377 17.1949 15.3791 17.339C15.3205 17.483 15.2228 17.6077 15.097 17.6991C14.9712 17.7905 14.8223 17.8448 14.6672 17.856C14.5122 17.8672 14.357 17.8348 14.2194 17.7625L9.73357 15.4041C9.61406 15.3414 9.48108 15.3086 9.34608 15.3086C9.21107 15.3086 9.07809 15.3414 8.95857 15.4041L4.47274 17.7625C4.33514 17.8346 4.18012 17.8668 4.02518 17.8555C3.87024 17.8442 3.72154 17.7898 3.59588 17.6985C3.47021 17.6071 3.37259 17.4825 3.31401 17.3386C3.25544 17.1947 3.23826 17.0373 3.26441 16.8841L4.12024 11.89C4.14313 11.7569 4.13331 11.6202 4.09165 11.4917C4.04999 11.3632 3.97772 11.2468 3.88107 11.1525L0.251908 7.61497C0.140489 7.50646 0.0616614 7.36893 0.0243434 7.21794C-0.0129746 7.06695 -0.00729349 6.90854 0.0407437 6.76061C0.0887808 6.61268 0.177257 6.48115 0.296163 6.38089C0.415069 6.28064 0.559658 6.21566 0.713575 6.19331L5.72858 5.46497C5.86229 5.44556 5.98927 5.39392 6.09859 5.31451C6.2079 5.2351 6.29627 5.1303 6.35607 5.00914L8.59857 0.464973Z" fill="#AC94FA"/>
</svg>
