<svg width="33" height="34" viewBox="0 0 33 34" fill="none" xmlns="http://www.w3.org/2000/svg">
<path d="M15 0.333252C14.6667 0.333252 14.3333 0.499919 14 0.666585L0.833333 7.99992C0.333333 8.33325 0 8.83325 0 9.49992V24.4999C0 25.1666 0.333333 25.6666 0.833333 25.9999L14 33.3332C14.3333 33.4999 14.6667 33.6666 15 33.6666C15.3333 33.6666 15.6667 33.4999 16 33.3332L17.5 32.4999C17 31.4999 16.8333 30.3333 16.6667 29.1666V17.9999L26.6667 12.3333V18.6666C27.8333 18.6666 29 18.8333 30 19.1666V9.49992C30 8.83325 29.6667 8.33325 29.1667 7.99992L16 0.666585C15.6667 0.499919 15.3333 0.333252 15 0.333252ZM15 3.99992L25 9.49992L21.6667 11.3333L11.8333 5.66658L15 3.99992ZM8.5 7.49992L18.3333 13.3333L15 15.1666L5 9.49992L8.5 7.49992ZM3.33333 12.3333L13.3333 17.9999V29.1666L3.33333 23.4999V12.3333ZM30.5 23.3333L24.5 29.3333L21.8333 26.6666L20 28.6666L24.6667 33.6666L32.6667 25.6666L30.5 23.3333Z" fill="#090045"/>
</svg>
