<svg width="48" height="40" viewBox="0 0 48 40" fill="none" xmlns="http://www.w3.org/2000/svg">
<path d="M46.3048 21.7099C45.7645 21.1661 45.1265 20.7364 44.4265 20.4448C43.0051 19.8517 41.4159 19.8517 39.9945 20.4448C39.2946 20.7365 38.6566 21.1662 38.1162 21.7099L37.5703 22.2605C37.418 22.414 37.2136 22.4999 37.0007 22.4999C36.7878 22.4999 36.5833 22.414 36.4311 22.2605L35.8851 21.7099C34.7884 20.6116 33.319 19.9986 31.7904 20.0019C30.2618 19.9986 28.7925 20.6116 27.6957 21.7099C27.1605 22.246 26.7347 22.8872 26.4434 23.5958C26.1522 24.3043 26.0014 25.0658 26 25.8354C26.0016 26.6049 26.1524 27.3662 26.4436 28.0746C26.7349 28.783 27.1606 29.4241 27.6957 29.9601L28.8121 31.084L36.4311 38.761C36.5833 38.9142 36.7876 39 37.0003 39C37.213 39 37.4172 38.9142 37.5695 38.761L45.1884 31.084L46.3048 29.9601C46.8405 29.4214 47.267 28.7782 47.5597 28.068C47.8503 27.3619 48 26.6026 48 25.8354C48 25.0683 47.8503 24.309 47.5597 23.6029C47.2672 22.8923 46.8406 22.2489 46.3048 21.7099Z" fill="#7EDCE2"/>
<path d="M6.66602 21.667C9.63784 22.0202 12.4044 23.3629 14.5206 25.4791C16.6368 27.5952 17.9795 30.3618 18.3327 33.3337C19.8059 32.4843 21.0382 31.2734 21.9131 29.8152C22.788 28.3571 23.2766 26.6999 23.3327 25.0003C26.1312 24.0158 28.575 22.2236 30.3549 19.8503C32.1349 17.477 33.1712 14.6292 33.3327 11.667C33.3327 10.3409 32.8059 9.06914 31.8682 8.13146C30.9305 7.19378 29.6588 6.66699 28.3327 6.66699C25.3705 6.82851 22.5226 7.86477 20.1493 9.64474C17.776 11.4247 15.9838 13.8685 14.9993 16.667C13.2998 16.7231 11.6426 17.2117 10.1845 18.0866C8.7263 18.9615 7.51533 20.1938 6.66602 21.667Z" stroke="#090045" stroke-width="2.5" stroke-linecap="round" stroke-linejoin="round"/>
<path d="M11.6658 23.3337C9.93122 24.313 8.5286 25.788 7.63777 27.5697C6.74694 29.3514 6.4085 31.3585 6.66584 33.3337C8.6411 33.5911 10.6482 33.2526 12.4299 32.3618C14.2115 31.471 15.6866 30.0684 16.6658 28.3337M23.3325 15.0004C23.3325 15.4424 23.5081 15.8664 23.8207 16.1789C24.1332 16.4915 24.5571 16.6671 24.9992 16.6671C25.4412 16.6671 25.8651 16.4915 26.1777 16.1789C26.4902 15.8664 26.6658 15.4424 26.6658 15.0004C26.6658 14.5584 26.4902 14.1345 26.1777 13.8219C25.8651 13.5093 25.4412 13.3337 24.9992 13.3337C24.5571 13.3337 24.1332 13.5093 23.8207 13.8219C23.5081 14.1345 23.3325 14.5584 23.3325 15.0004Z" stroke="#090045" stroke-width="2.5" stroke-linecap="round" stroke-linejoin="round"/>
</svg>
