<svg width="40" height="40" viewBox="0 0 40 40" fill="none" xmlns="http://www.w3.org/2000/svg">
<path d="M15.0013 1.66699H5.0013C4.11725 1.66699 3.2694 2.01818 2.64428 2.6433C2.01916 3.26842 1.66797 4.11627 1.66797 5.00033V26.667C1.66797 27.551 2.01916 28.3989 2.64428 29.024C3.2694 29.6491 4.11725 30.0003 5.0013 30.0003H15.0013C15.8854 30.0003 16.7332 29.6491 17.3583 29.024C17.9834 28.3989 18.3346 27.551 18.3346 26.667V5.00033C18.3346 4.11627 17.9834 3.26842 17.3583 2.6433C16.7332 2.01818 15.8854 1.66699 15.0013 1.66699ZM15.0013 25.0003H5.0013V5.00033H15.0013V25.0003ZM35.0013 21.667H21.668V25.0003H35.0013V35.0003H15.0013V33.3337H10.0013V35.0003C10.0013 35.8844 10.3525 36.7322 10.9776 37.3573C11.6027 37.9825 12.4506 38.3337 13.3346 38.3337H35.0013C35.8854 38.3337 36.7332 37.9825 37.3583 37.3573C37.9834 36.7322 38.3346 35.8844 38.3346 35.0003V25.0003C38.3346 24.1163 37.9834 23.2684 37.3583 22.6433C36.7332 22.0182 35.8854 21.667 35.0013 21.667ZM38.3346 16.667L31.668 13.3337L34.8513 11.817C33.8935 9.55293 32.291 7.62054 30.2432 6.26033C28.1955 4.90011 25.793 4.17213 23.3346 4.16699V1.66699C27.3129 1.66699 31.1282 3.24735 33.9412 6.06039C36.7543 8.87344 38.3346 12.6887 38.3346 16.667Z" fill="#090045"/>
</svg>
