<svg width="40" height="40" viewBox="0 0 40 40" fill="none" xmlns="http://www.w3.org/2000/svg">
<path d="M35.0013 26.6666H5.0013V6.66659H35.0013M35.0013 3.33325H5.0013C3.1513 3.33325 1.66797 4.81659 1.66797 6.66659V26.6666C1.66797 27.5506 2.01916 28.3985 2.64428 29.0236C3.2694 29.6487 4.11725 29.9999 5.0013 29.9999H16.668V33.3333H13.3346V36.6666H26.668V33.3333H23.3346V29.9999H35.0013C36.8513 29.9999 38.3346 28.5166 38.3346 26.6666V6.66659C38.3346 5.78253 37.9834 4.93468 37.3583 4.30956C36.7332 3.68444 35.8854 3.33325 35.0013 3.33325ZM25.0013 9.16658L23.968 11.4499L21.668 12.4999L23.968 13.5499L25.0013 15.8333L26.0513 13.5499L28.3346 12.4999L26.0513 11.4499L25.0013 9.16658ZM17.5013 12.4999L15.6846 16.5166L11.668 18.3333L15.6846 20.1499L17.5013 24.1666L19.3346 20.1499L23.3346 18.3333L19.3346 16.5166L17.5013 12.4999Z" fill="#090045"/>
</svg>
