<svg width="34" height="36" viewBox="0 0 34 36" fill="none" xmlns="http://www.w3.org/2000/svg">
<path d="M31.9991 19.7549V20.0433M31.9991 20.0433C31.9939 19.3322 31.7364 18.6462 31.2724 18.1074C30.8084 17.5686 30.1682 17.2122 29.4658 17.1016L27.4541 16.7716V18.2633M31.9991 20.0433V23.7316C31.9991 26.9716 31.9991 28.5916 31.4974 29.8816C31.1147 30.8612 30.5303 31.7494 29.782 32.4885C29.0337 33.2276 28.1384 33.801 27.1541 34.1716C25.8474 34.6666 24.2041 34.6666 20.9224 34.6666C19.2008 34.6666 18.3391 34.6666 17.5391 34.4933C16.3193 34.2292 15.1835 33.6682 14.2324 32.8599C13.6108 32.3316 13.0941 31.6516 12.0624 30.2933L7.51078 24.2999C7.17132 23.854 6.99154 23.3069 7.00031 22.7466C7.00907 22.1862 7.20587 21.645 7.55911 21.2099C7.78587 20.9323 8.06802 20.7051 8.38754 20.5427C8.70706 20.3803 9.05693 20.2863 9.41482 20.2667C9.7727 20.2471 10.1307 20.3023 10.4661 20.4288C10.8014 20.5554 11.1067 20.7504 11.3624 21.0016L13.6658 23.4266V8.83325C13.6658 8.17021 13.9292 7.53433 14.398 7.06548C14.8669 6.59664 15.5027 6.33325 16.1658 6.33325C16.8288 6.33325 17.4647 6.59664 17.9335 7.06548C18.4024 7.53433 18.6658 8.17021 18.6658 8.83325V13.7899H19.8774C21.5508 13.7899 22.9091 15.1233 22.9091 16.7733M18.6658 13.7883V18.2616M22.9091 18.2616V16.7699V15.2783H24.4241C26.0974 15.2783 27.4541 16.6149 27.4541 18.2616V19.7533" stroke="#090045" stroke-width="2.5" stroke-linecap="round" stroke-linejoin="round"/>
<path d="M8.66667 11.3333H7.29333C4.8 11.3333 3.55 11.3333 2.77667 10.5999C2 9.86992 2 8.69159 2 6.33325C2 3.97492 2 2.79825 2.775 2.06659C3.55 1.33492 4.8 1.33325 7.29333 1.33325H26.705C29.2017 1.33325 30.45 1.33325 31.225 2.06659C32 2.79659 32 3.97492 32 6.33325C32 8.69159 32 9.86825 31.225 10.5999C30.45 11.3316 29.2 11.3333 26.705 11.3333H24.5" stroke="#090045" stroke-width="2.5" stroke-linecap="round" stroke-linejoin="round"/>
</svg>
