<svg width="191" height="103" viewBox="0 0 191 103" fill="none" xmlns="http://www.w3.org/2000/svg">
<path d="M8.17711 21.94C8.47401 21.897 8.86463 22.0404 9.34898 22.3703C9.83334 22.7002 10.1056 23.073 10.1659 23.4887C10.3312 24.6287 10.0636 26.9229 9.36318 30.3711C9.12643 31.5816 9.04077 32.4124 9.1062 32.8637C9.11481 32.9231 9.13186 32.957 9.15733 32.9654C9.1828 32.9739 9.40337 32.948 9.81902 32.8877C10.2347 32.8274 10.7961 32.6854 11.5033 32.4616C12.2207 32.2242 12.7964 32.0134 13.2304 31.8292C13.6764 31.6433 13.9409 31.5443 14.024 31.5323C14.3209 31.4892 14.4969 31.6577 14.552 32.0377C14.6605 32.7859 14.1783 33.4742 13.1054 34.1027C12.0426 34.7176 10.763 35.1335 9.26669 35.3504C8.68478 35.4348 8.11937 35.2985 7.57047 34.9416C7.03173 34.5711 6.72447 34.1245 6.64871 33.602C6.57295 33.0795 6.76784 31.3294 7.23339 28.3518C7.69722 25.3623 7.868 23.4459 7.74575 22.6028C7.68892 22.2109 7.83271 21.9899 8.17711 21.94ZM23.5263 27.3353C23.6107 27.9172 23.2886 28.4975 22.5601 29.076C21.8434 29.6528 21.0695 30.0015 20.2382 30.122C19.4068 30.2425 18.7154 30.2822 18.1637 30.2409C18.1034 30.577 18.0964 30.9054 18.1429 31.2261C18.1894 31.5467 18.2764 31.7706 18.404 31.8976C18.5298 32.0127 18.8065 32.0393 19.234 31.9773C20.1247 31.8481 20.8727 31.6548 21.478 31.3973C22.0952 31.138 22.4156 31.0067 22.4394 31.0033C22.9263 30.9327 23.193 31.0577 23.2395 31.3783C23.3066 31.8415 22.9844 32.3369 22.2727 32.8644C21.5729 33.3903 20.7183 33.7264 19.7089 33.8728C18.7113 34.0174 17.8641 33.8189 17.1671 33.2773C16.4702 32.7357 16.0598 32.0374 15.9358 31.1823C15.8101 30.3154 15.9286 29.3767 16.2914 28.3662C16.666 27.3539 17.1877 26.478 17.8565 25.7384C18.5236 24.9869 19.2312 24.5569 19.9794 24.4484C20.7394 24.3382 21.4943 24.6107 22.2441 25.2659C22.9922 25.9092 23.4196 26.599 23.5263 27.3353ZM21.4186 27.3499C21.4014 27.2312 21.2517 27.0771 20.9696 26.8876C20.6875 26.6981 20.4336 26.6197 20.208 26.6524C19.9942 26.6834 19.7384 26.8842 19.4405 27.2548C19.1408 27.6135 18.8728 28.0646 18.6364 28.6082C18.745 28.6046 18.9002 28.5881 19.1021 28.5588C20.7291 28.3229 21.5012 27.92 21.4186 27.3499ZM31.9309 26.9352C32.1722 27.0942 32.3041 27.2509 32.3265 27.4053C32.3489 27.5597 32.3241 27.8907 32.2522 28.3982C32.1803 28.9058 32.1404 29.2996 32.1325 29.5796C32.1229 29.8478 32.1114 30.0616 32.0982 30.2212C32.0968 30.379 32.0971 30.5063 32.099 30.603C32.0992 30.6879 32.0909 30.7982 32.0742 30.934C32.0694 31.0681 32.0612 31.1784 32.0495 31.265C32.0479 31.338 32.0371 31.4305 32.0169 31.5425C32.007 31.641 31.9885 31.7225 31.9615 31.787C31.9327 31.8397 31.8989 31.8992 31.86 31.9654C31.8025 32.0708 31.6907 32.1355 31.5244 32.1596C31.3581 32.1837 31.1262 32.0476 30.8286 31.7512C30.5429 31.4531 30.3062 31.0752 30.1185 30.6174C29.1675 31.9193 28.312 32.6254 27.5519 32.7356C27.0413 32.8096 26.4486 32.6106 25.7739 32.1385C25.0974 31.6546 24.7187 31.1335 24.6378 30.5754C24.5552 30.0053 24.6934 29.1608 25.0525 28.0416C25.4117 26.9225 25.9661 25.8539 26.7157 24.8358C27.4773 23.816 28.2915 23.2432 29.1584 23.1175C29.6572 23.0452 30.2754 23.2526 31.0129 23.7399C31.7505 24.2271 32.1545 24.7141 32.2251 25.201C32.294 25.6761 32.1959 26.2541 31.9309 26.9352ZM27.1552 30.5014C27.6303 30.4325 28.2132 30.0206 28.904 29.2656C29.605 28.4971 29.979 27.6062 30.0261 26.593C30.0173 26.4487 30.1062 26.351 30.2928 26.2997C30.159 25.6279 29.9971 25.3058 29.8071 25.3334C29.3321 25.4022 28.8424 25.7885 28.3382 26.4921C27.8458 27.1941 27.4604 27.9229 27.182 28.6787C26.9154 29.4327 26.8062 29.976 26.8545 30.3085C26.8682 30.4035 26.8896 30.4671 26.9185 30.4993C26.9576 30.5179 27.0365 30.5186 27.1552 30.5014ZM34.258 25.4519L33.8592 23.4545C33.7628 22.7894 33.9224 22.4268 34.3381 22.3665C34.5756 22.3321 34.8201 22.3876 35.0715 22.533C35.3349 22.6767 35.5535 22.9299 35.7273 23.2927C36.0795 22.8779 36.4775 22.5292 36.9216 22.2465C37.3758 21.9503 37.7869 21.7755 38.1551 21.7221C39.022 21.5964 39.4856 21.7414 39.5459 22.157C39.5769 22.3708 39.5586 22.5372 39.4909 22.6561C39.4334 22.7614 39.3844 22.8413 39.3438 22.8957C39.315 22.9484 39.2533 23.024 39.1584 23.1226C39.0738 23.2077 39.0103 23.2714 38.9679 23.314C38.7206 23.5317 38.5427 23.6848 38.4343 23.7733C37.9481 24.1833 37.5494 24.6534 37.2383 25.1835C36.9254 25.7018 36.7342 26.3903 36.6648 27.2492C36.5421 28.6614 36.3755 29.7283 36.1649 30.45C35.9644 31.1581 35.6742 31.5397 35.2941 31.5948C34.926 31.6482 34.6211 31.5105 34.3794 31.1818C34.1496 30.8513 34.0123 30.5317 33.9676 30.223C33.9211 29.9023 33.965 29.4109 34.0994 28.7488C34.2456 28.0849 34.3276 27.5213 34.3453 27.058C34.3732 26.5811 34.3441 26.0457 34.258 25.4519ZM45.8511 20.6972C46.4687 20.6076 47.0495 20.8084 47.5936 21.2994C48.1478 21.7768 48.4706 22.3302 48.5618 22.9596C48.7082 23.9691 48.6952 25.0501 48.5228 26.2028C48.3606 27.3419 48.1266 28.2367 47.8207 28.8873C47.5268 29.5362 47.178 29.8899 46.7742 29.9485C46.3823 30.0053 46.1459 29.7546 46.0649 29.1965C46.0029 28.7689 46.0741 27.8795 46.2783 26.5282C46.4202 25.4164 46.4576 24.6288 46.3904 24.1657C46.3233 23.7025 46.2303 23.4796 46.1116 23.4968C45.9572 23.5192 45.814 23.6187 45.682 23.7955C45.5619 23.9706 45.4629 24.1244 45.3851 24.2569C45.3073 24.3894 45.2169 24.5602 45.1138 24.7691C45.0209 24.9645 44.9381 25.1462 44.8655 25.3144C44.803 25.469 44.7177 25.6753 44.6097 25.9335C44.5118 26.1781 44.4324 26.3836 44.3717 26.55C44.3092 26.7046 44.2299 26.9101 44.1337 27.1666C43.3288 29.3931 42.6117 30.552 41.9823 30.6433C41.7329 30.6794 41.3872 30.5113 40.9452 30.1389C40.5014 29.7546 40.2649 29.4615 40.2357 29.2596C40.2167 29.1289 40.2594 28.8378 40.3637 28.3862C40.4781 27.9209 40.5546 27.5703 40.5931 27.3344C40.6418 27.0848 40.671 26.8259 40.6806 26.5578C40.7021 26.2879 40.7091 26.0019 40.7017 25.6999C40.6926 25.3859 40.6819 25.145 40.6696 24.977C40.6693 24.8073 40.6552 24.5426 40.6272 24.1828C40.5103 22.6235 40.4754 21.7555 40.5225 21.5789C40.5815 21.4006 40.6586 21.3046 40.7536 21.2908C41.2048 21.2254 41.6659 21.3525 42.1366 21.6723C42.6057 21.9802 42.8626 22.2885 42.9073 22.5973C43.0141 23.3336 42.9773 24.4181 42.797 25.8508C43.3727 24.385 43.9132 23.1789 44.4186 22.2326C44.9342 21.2727 45.4117 20.7609 45.8511 20.6972ZM61.6986 18.4176C62.1499 18.3522 62.634 18.5548 63.1509 19.0255C63.6678 19.4962 63.9572 19.9453 64.0192 20.3728C64.0605 20.6579 63.9565 20.8184 63.7071 20.8546C63.5646 20.8753 63.349 20.852 63.0604 20.7847C62.77 20.7055 62.4823 20.6866 62.1973 20.7279C61.9241 20.7675 61.5282 20.922 61.0095 21.1912C60.5026 21.4587 60.2716 21.7468 60.3163 22.0556C60.3335 22.1743 60.5188 22.3233 60.8722 22.5024C61.2256 22.6816 61.6095 22.8624 62.0239 23.0448C62.4384 23.2272 62.837 23.5089 63.2196 23.89C63.6005 24.2591 63.8271 24.6931 63.8994 25.1919C63.97 25.6788 63.6793 26.2242 63.0272 26.828C62.387 27.4301 61.5799 27.8017 60.6061 27.9429C59.6442 28.0824 58.787 27.9824 58.0344 27.6428C57.2819 27.3033 56.8721 26.902 56.805 26.4388C56.7378 25.9756 56.8942 25.7165 57.2743 25.6614C57.4286 25.639 57.6213 25.6717 57.8523 25.7595C58.496 26.0178 59.2573 26.0832 60.1361 25.9558C61.0268 25.8267 61.4549 25.6433 61.4205 25.4058C61.3861 25.1683 61.176 24.932 60.7902 24.6969C60.4147 24.4482 60.0069 24.2285 59.567 24.0376C59.1389 23.8451 58.7269 23.5956 58.3308 23.2893C57.9449 22.9693 57.727 22.6372 57.6771 22.2928C57.5841 21.6515 58.0652 20.8724 59.1206 19.9554C60.1742 19.0266 61.0336 18.514 61.6986 18.4176ZM76.3175 16.2798C76.7806 16.2126 77.2114 16.4654 77.6097 17.0382C78.008 17.611 78.2442 18.1527 78.3182 18.6633C78.3922 19.174 78.4015 19.9487 78.346 20.9874C78.3006 22.0125 78.1322 23.0252 77.8407 24.0253C77.5593 25.0119 77.1752 25.5405 76.6883 25.6111C76.2964 25.6679 76.0617 25.4291 75.9842 24.8947C75.9067 24.3603 75.9345 23.4651 76.0677 22.209C76.2008 20.9529 76.2398 20.1348 76.1847 19.7548C76.1296 19.3747 76.0427 19.1933 75.9239 19.2106C75.6746 19.2467 75.4173 19.5629 75.1521 20.1591C74.8869 20.7554 74.5771 21.546 74.2228 22.531C73.8804 23.5143 73.6687 24.1452 73.5878 24.4237C73.5069 24.7022 73.4361 24.9247 73.3754 25.0911C73.3265 25.2558 73.2666 25.4282 73.1957 25.6082C72.907 26.2928 72.4022 26.3659 71.6816 25.8278C71.3144 25.5536 71.1119 25.2859 71.074 25.0247C71.0672 24.9772 71.0967 24.5121 71.1628 23.6295C71.2389 22.7333 71.197 21.7329 71.0368 20.6285C70.9697 20.1653 70.8827 19.9415 70.7758 19.957C70.6333 19.9777 70.4877 20.1443 70.339 20.4569C70.1903 20.7694 69.9742 21.3282 69.6908 22.1332C69.4074 22.9382 69.1585 23.6048 68.9441 24.1331C68.1927 25.9759 67.5558 26.9353 67.0333 27.011C66.772 27.0489 66.4135 26.8766 65.9579 26.494C65.5142 26.1097 65.276 25.8047 65.2433 25.5791C65.2088 25.3416 65.2585 24.7644 65.3924 23.8478C65.5364 22.9175 65.5717 21.9484 65.4983 20.9405C65.4368 19.9308 65.3952 19.1427 65.3737 18.5759C65.364 18.0074 65.4661 17.7076 65.6798 17.6766C66.1311 17.6112 66.5921 17.7384 67.0629 18.0581C67.5438 18.3643 67.8066 18.6718 67.8514 18.9805C67.953 19.6812 67.875 20.9414 67.6175 22.7612C68.1612 20.6574 68.6673 19.2139 69.1358 18.4305C69.6364 17.6183 70.1658 17.1717 70.724 17.0908C71.0327 17.046 71.4541 17.2759 71.988 17.7805C72.5338 18.2834 72.8429 18.7843 72.9152 19.283C72.9858 19.77 73.0419 20.1983 73.0834 20.5682C73.3172 19.5885 73.7514 18.6525 74.3859 17.7602C75.0204 16.868 75.6643 16.3745 76.3175 16.2798ZM87.0943 18.9369C87.3356 19.0959 87.4675 19.2526 87.4899 19.407C87.5122 19.5613 87.4875 19.8923 87.4156 20.3999C87.3437 20.9075 87.3038 21.3013 87.2959 21.5813C87.2862 21.8495 87.2748 22.0633 87.2616 22.2229C87.2602 22.3807 87.2605 22.508 87.2624 22.6047C87.2625 22.6896 87.2543 22.7999 87.2376 22.9357C87.2328 23.0698 87.2245 23.1801 87.2128 23.2667C87.2113 23.3396 87.2005 23.4321 87.1803 23.5442C87.1703 23.6426 87.1519 23.7241 87.1248 23.7887C87.0961 23.8414 87.0623 23.9008 87.0234 23.9671C86.9659 24.0724 86.854 24.1371 86.6878 24.1613C86.5215 24.1854 86.2896 24.0492 85.992 23.7529C85.7062 23.4548 85.4696 23.0768 85.2819 22.619C84.3309 23.921 83.4754 24.627 82.7153 24.7372C82.2047 24.8113 81.612 24.6123 80.9372 24.1402C80.2608 23.6563 79.8821 23.1352 79.8012 22.577C79.7185 22.007 79.8568 21.1624 80.2159 20.0433C80.575 18.9242 81.1294 17.8556 81.8791 16.8375C82.6406 15.8176 83.4549 15.2449 84.3218 15.1192C84.8206 15.0469 85.4388 15.2543 86.1763 15.7415C86.9138 16.2287 87.3179 16.7158 87.3885 17.2027C87.4574 17.6777 87.3593 18.2558 87.0943 18.9369ZM82.3186 22.503C82.7936 22.4342 83.3766 22.0223 84.0674 21.2673C84.7684 20.4988 85.1424 19.6079 85.1895 18.5946C85.1807 18.4504 85.2696 18.3526 85.4562 18.3013C85.3224 17.6296 85.1605 17.3075 84.9705 17.335C84.4955 17.4039 84.0058 17.7902 83.5016 18.4938C83.0092 19.1957 82.6238 19.9246 82.3453 20.6803C82.0788 21.4344 81.9696 21.9777 82.0178 22.3102C82.0316 22.4052 82.053 22.4688 82.0819 22.501C82.1209 22.5196 82.1999 22.5203 82.3186 22.503ZM89.4213 17.4536L89.0226 15.4561C88.9262 14.7911 89.0858 14.4284 89.5014 14.3682C89.7389 14.3337 89.9834 14.3892 90.2349 14.5346C90.4983 14.6783 90.7169 14.9316 90.8907 15.2944C91.2428 14.8796 91.6409 14.5309 92.085 14.2482C92.5391 13.952 92.9503 13.7772 93.3185 13.7238C94.1854 13.5981 94.649 13.7431 94.7093 14.1587C94.7403 14.3725 94.7219 14.5388 94.6543 14.6578C94.5968 14.7631 94.5478 14.843 94.5072 14.8974C94.4784 14.95 94.4166 15.0257 94.3218 15.1243C94.2371 15.2093 94.1736 15.2731 94.1313 15.3156C93.884 15.5334 93.7061 15.6865 93.5977 15.7749C93.1115 16.185 92.7128 16.655 92.4017 17.1852C92.0888 17.7034 91.8976 18.392 91.8281 19.2508C91.7055 20.663 91.5389 21.73 91.3283 22.4517C91.1278 23.1598 90.8375 23.5414 90.4575 23.5965C90.0894 23.6499 89.7845 23.5122 89.5428 23.1835C89.313 22.853 89.1757 22.5334 89.1309 22.2246C89.0845 21.904 89.1284 21.4126 89.2628 20.7505C89.409 20.0866 89.491 19.523 89.5087 19.0597C89.5366 18.5827 89.5074 18.0474 89.4213 17.4536ZM99.3802 15.1002C99.3317 15.4346 99.2546 15.9066 99.149 16.516C99.0535 17.1119 98.932 17.8631 98.7846 18.7697C98.649 19.6745 98.5855 20.1566 98.5941 20.2159C98.601 20.2635 98.6995 20.2734 98.8895 20.2459C99.0914 20.2166 99.5415 20.018 100.24 19.6499C100.937 19.27 101.35 19.0706 101.481 19.0517C101.778 19.0086 101.956 19.189 102.014 19.5928C102.073 19.9965 101.745 20.5411 101.032 21.2265C100.318 21.9001 99.5268 22.2997 98.6598 22.4254C98.2798 22.4805 97.7984 22.3381 97.2156 21.9982C96.6328 21.6583 96.3104 21.2746 96.2484 20.8471C96.1968 20.4908 96.2664 19.7168 96.4574 18.5251C96.6585 17.3197 96.7934 16.4938 96.862 16.0474C96.4178 16.2451 96.077 16.3613 95.8394 16.3957C95.6019 16.4301 95.3293 16.306 95.0215 16.0232C94.712 15.7286 94.5358 15.4328 94.4927 15.1359C94.4376 14.7559 95.3115 14.3018 97.1144 13.7736C97.1799 12.6364 97.1541 11.6641 97.037 10.8565C96.9853 10.5003 97.1376 10.2963 97.4939 10.2446C97.8027 10.1999 98.2221 10.3331 98.7523 10.6442C99.2926 10.9418 99.5894 11.2746 99.6428 11.6428C99.6944 11.999 99.6904 12.5149 99.6307 13.1905C100.197 13.0841 100.629 13.0094 100.926 12.9663C101.817 12.8372 102.291 12.9745 102.35 13.3783C102.388 13.6395 102.159 13.9031 101.664 14.1688C101.179 14.421 100.418 14.7315 99.3802 15.1002ZM104.285 7.132C104.57 7.09067 104.976 7.29856 105.503 7.75567C106.03 8.21277 106.328 8.67884 106.397 9.15387C106.466 9.6289 106.517 10.4884 106.552 11.7322C106.585 12.9642 106.577 13.9536 106.528 14.7004C106.166 19.1424 105.788 21.3918 105.396 21.4486C105.135 21.4865 104.779 21.326 104.326 20.9672C103.884 20.5948 103.644 20.272 103.604 19.9988C103.6 19.9751 103.671 19.3343 103.816 18.0765C103.961 16.8186 104.056 15.2164 104.101 13.2698C104.157 11.3096 104.059 9.46254 103.807 7.72867C103.757 7.38427 103.916 7.18538 104.285 7.132ZM113.937 11.2799C113.965 10.9727 114.14 10.7958 114.46 10.7493C114.781 10.7028 115.137 10.8573 115.528 11.2129C115.931 11.5668 116.169 11.999 116.243 12.5097C116.286 12.8066 116.247 13.2912 116.127 13.9634C116.006 14.6357 115.918 15.1153 115.862 15.4023C115.819 15.6874 115.748 16.0796 115.651 16.5788C115.552 17.066 115.46 17.5219 115.376 17.9463C115.303 18.3572 115.195 18.9123 115.054 19.6118C114.925 20.3096 114.807 20.9572 114.699 21.5548C114.486 22.677 114.154 23.5678 113.704 24.2272C113.266 24.8849 112.626 25.2749 111.782 25.3971C110.939 25.5194 110.152 25.4031 109.422 25.0482C108.693 24.7053 108.296 24.3081 108.231 23.8569C108.191 23.5837 108.266 23.2637 108.455 22.8967C108.656 22.528 108.84 22.3316 109.006 22.3075C109.184 22.2817 109.43 22.3855 109.743 22.6191C110.069 22.8628 110.4 23.0997 110.737 23.3298C111.075 23.5717 111.357 23.6764 111.583 23.6436C111.737 23.6213 111.851 23.5319 111.926 23.3756C112.012 23.2176 112.076 23.0749 112.118 22.9476C112.174 22.8304 112.223 22.6656 112.265 22.4534C112.309 22.2531 112.348 22.0655 112.383 21.8906C112.419 21.7157 112.458 21.4857 112.502 21.2005C112.545 20.9153 112.581 20.6615 112.61 20.4391C112.718 19.7686 112.808 19.1736 112.878 18.6541C112.56 19.2216 112.216 19.6899 111.845 20.0589C111.472 20.4161 111.108 20.6205 110.752 20.6721C110.407 20.7221 109.936 20.5237 109.338 20.0769C108.75 19.6165 108.41 19.0716 108.319 18.4422C108.226 17.8009 108.238 16.926 108.356 15.8176C108.486 14.7075 108.699 13.7066 108.994 12.815C109.289 11.9235 109.597 11.4544 109.918 11.4079C110.286 11.3546 110.654 11.4649 111.021 11.7391C111.398 11.9997 111.608 12.2784 111.651 12.5753C111.693 12.8603 111.611 13.345 111.407 14.0293C111.215 14.7119 111.026 15.4548 110.839 16.2579C110.653 17.061 110.598 17.7298 110.675 18.2642C110.686 18.3354 110.721 18.3667 110.78 18.3581C110.934 18.3358 111.22 18.0034 111.636 17.361C112.05 16.7068 112.49 15.8064 112.954 14.6599C113.428 13.4999 113.756 12.3732 113.937 11.2799Z" fill="white"/>
<path d="M43.5631 37.3288C43.6369 36.918 43.9807 36.6135 44.5947 36.4154C45.2086 36.2172 46.1509 36.026 47.4216 35.8418C48.7042 35.6558 49.6995 35.6206 50.4074 35.7363C51.1136 35.84 51.4942 36.0819 51.5493 36.4619C51.5751 36.64 51.5228 36.781 51.3924 36.8848C51.2721 36.975 51.1619 37.0516 51.0619 37.1146C50.9721 37.164 50.8407 37.2194 50.6677 37.2809C50.5066 37.3406 50.3574 37.3986 50.22 37.4549C50.081 37.4993 49.8944 37.5506 49.6603 37.6088C49.4381 37.6653 49.2456 37.7175 49.0828 37.7653C48.9183 37.8013 48.702 37.8569 48.434 37.9321C48.1643 37.9955 47.9184 38.0554 47.6962 38.1119C47.474 38.1683 46.8931 38.3435 45.9536 38.6374L45.9562 38.6552C46.0181 39.0827 45.9985 40.2435 45.8973 42.1377C46.0534 42.1272 46.3333 42.0926 46.7371 42.0341C47.1527 41.9738 47.6888 41.8658 48.3452 41.71C48.9999 41.5423 49.4282 41.4438 49.6301 41.4145C49.8439 41.3835 50.0298 41.4112 50.1878 41.4974C50.3458 41.5836 50.4343 41.692 50.4532 41.8227C50.4997 42.1433 50.351 42.4559 50.0071 42.7604C49.6633 43.0649 49.2167 43.3297 48.6673 43.5549C47.5685 44.0052 46.5874 44.3051 45.7239 44.4545C45.5863 46.0144 45.5009 46.9726 45.4677 47.329C45.4447 47.6719 45.414 48.0037 45.3756 48.3245C45.3091 48.9526 45.2105 49.2761 45.0798 49.295C44.8304 49.3312 44.4515 49.1012 43.9431 48.605C43.4346 48.1088 43.1606 47.7242 43.121 47.451C43.0521 46.976 43.1244 45.4256 43.3378 42.7998C43.5631 40.1723 43.6462 38.5293 43.5871 37.871L43.5664 37.7285C43.5441 37.5741 43.5429 37.4409 43.5631 37.3288ZM59.6329 42.0377C59.8742 42.1967 60.0061 42.3534 60.0285 42.5078C60.0508 42.6622 60.0261 42.9931 59.9542 43.5007C59.8823 44.0083 59.8424 44.4021 59.8345 44.6821C59.8248 44.9503 59.8134 45.1641 59.8002 45.3237C59.7988 45.4815 59.7991 45.6088 59.801 45.7055C59.8011 45.7904 59.7929 45.9007 59.7762 46.0365C59.7714 46.1706 59.7631 46.2809 59.7514 46.3675C59.7499 46.4404 59.739 46.5329 59.7189 46.645C59.7089 46.7434 59.6904 46.8249 59.6634 46.8895C59.6347 46.9422 59.6009 47.0016 59.562 47.0679C59.5045 47.1732 59.3926 47.238 59.2264 47.2621C59.0601 47.2862 58.8282 47.15 58.5306 46.8537C58.2448 46.5556 58.0082 46.1776 57.8205 45.7198C56.8695 47.0218 56.014 47.7278 55.2539 47.838C54.7432 47.9121 54.1506 47.7131 53.4758 47.241C52.7994 46.7571 52.4207 46.236 52.3398 45.6778C52.2571 45.1078 52.3954 44.2632 52.7545 43.1441C53.1136 42.025 53.668 40.9564 54.4177 39.9383C55.1792 38.9185 55.9935 38.3457 56.8604 38.22C57.3592 38.1477 57.9774 38.3551 58.7149 38.8423C59.4524 39.3295 59.8565 39.8166 59.9271 40.3035C59.996 40.7785 59.8979 41.3566 59.6329 42.0377ZM54.8572 45.6038C55.3322 45.535 55.9152 45.1231 56.606 44.3681C57.307 43.5996 57.681 42.7087 57.7281 41.6954C57.7193 41.5512 57.8082 41.4534 57.9948 41.4021C57.861 40.7304 57.6991 40.4083 57.5091 40.4358C57.034 40.5047 56.5444 40.891 56.0402 41.5946C55.5478 42.2965 55.1624 43.0254 54.8839 43.7811C54.6174 44.5352 54.5082 45.0785 54.5564 45.411C54.5702 45.506 54.5915 45.5696 54.6205 45.6018C54.6595 45.6204 54.7385 45.6211 54.8572 45.6038ZM66.2288 36.8798C66.6801 36.8144 67.1642 37.017 67.6811 37.4877C68.198 37.9584 68.4874 38.4075 68.5494 38.8351C68.5907 39.1201 68.4867 39.2807 68.2373 39.3168C68.0948 39.3375 67.8792 39.3142 67.5906 39.2469C67.3002 39.1678 67.0125 39.1488 66.7275 39.1902C66.4544 39.2298 66.0584 39.3842 65.5397 39.6534C65.0328 39.9209 64.8018 40.209 64.8466 40.5178C64.8638 40.6366 65.0491 40.7855 65.4024 40.9647C65.7558 41.1438 66.1397 41.3246 66.5542 41.507C66.9686 41.6894 67.3672 41.9712 67.7498 42.3522C68.1307 42.7214 68.3573 43.1553 68.4297 43.6541C68.5003 44.141 68.2095 44.6864 67.5574 45.2902C66.9172 45.8923 66.1102 46.264 65.1363 46.4052C64.1744 46.5446 63.3172 46.4446 62.5647 46.1051C61.8122 45.7655 61.4023 45.3642 61.3352 44.901C61.268 44.4379 61.4245 44.1787 61.8045 44.1236C61.9589 44.1013 62.1516 44.1339 62.3825 44.2217C63.0263 44.48 63.7875 44.5455 64.6663 44.418C65.557 44.2889 65.9852 44.1056 65.9507 43.868C65.9163 43.6305 65.7062 43.3942 65.3205 43.1591C64.9449 42.9105 64.5371 42.6907 64.0972 42.4998C63.6691 42.3073 63.2571 42.0578 62.861 41.7515C62.4751 41.4315 62.2572 41.0994 62.2073 40.755C62.1143 40.1137 62.5955 39.3346 63.6508 38.4177C64.7044 37.4889 65.5638 36.9762 66.2288 36.8798ZM73.7802 37.9311C73.7317 38.2656 73.6546 38.7375 73.5489 39.347C73.4535 39.9428 73.332 40.694 73.1846 41.6006C73.049 42.5054 72.9855 42.9875 72.9941 43.0469C73.001 43.0944 73.0995 43.1043 73.2895 43.0768C73.4914 43.0475 73.9415 42.8489 74.6399 42.4808C75.3366 42.1009 75.7503 41.9015 75.8809 41.8826C76.1778 41.8395 76.3555 42.0199 76.4141 42.4237C76.4726 42.8274 76.1454 43.372 75.4324 44.0574C74.7176 44.731 73.9268 45.1306 73.0598 45.2563C72.6798 45.3114 72.1984 45.169 71.6156 44.8291C71.0328 44.4892 70.7104 44.1055 70.6484 43.678C70.5967 43.3217 70.6664 42.5477 70.8574 41.356C71.0585 40.1506 71.1934 39.3247 71.262 38.8783C70.8178 39.0761 70.4769 39.1922 70.2394 39.2266C70.0019 39.261 69.7293 39.1369 69.4215 38.8541C69.112 38.5595 68.9358 38.2637 68.8927 37.9668C68.8376 37.5868 69.7115 37.1327 71.5144 36.6045C71.5799 35.4674 71.5541 34.495 71.437 33.6874C71.3853 33.3312 71.5376 33.1272 71.8939 33.0755C72.2027 33.0308 72.6221 33.164 73.1523 33.4751C73.6926 33.7727 73.9894 34.1055 74.0428 34.4737C74.0944 34.8299 74.0904 35.3459 74.0307 36.0214C74.5973 35.915 75.0291 35.8403 75.326 35.7972C76.2167 35.6681 76.6913 35.8054 76.7498 36.2092C76.7877 36.4705 76.5591 36.734 76.0642 36.9998C75.5793 37.2519 74.818 37.5624 73.7802 37.9311Z" fill="white"/>
<g clip-path="url(#clip0_381_9336)">
<g clip-path="url(#clip1_381_9336)">
<g clip-path="url(#clip2_381_9336)">
<mask id="mask0_381_9336" style="mask-type:luminance" maskUnits="userSpaceOnUse" x="90" y="30" width="101" height="63">
<path d="M179.739 92.9525L190.092 54.3154L100.744 30.3747L90.3909 69.0117L179.739 92.9525Z" fill="white"/>
</mask>
<g mask="url(#mask0_381_9336)">
<path d="M97.957 40.7746C99.6466 38.7766 100.241 37.4188 101.112 37.1852C104.349 36.3022 107.645 35.2014 111.002 35.1671C119.994 34.7757 128.306 37.3531 136.239 41.346C149.774 48.1236 160.731 58.0617 170.604 69.4599C171.663 70.6772 172.751 71.7857 173.918 73.032C174.025 73.0609 174.27 73.0096 174.651 72.8784C174.647 70.3097 174.672 67.6324 174.775 65.0926C174.91 63.7282 175.319 62.2039 176.099 61.0126C176.519 60.3081 177.995 59.5367 178.749 59.7386C179.718 59.9984 180.699 61.078 181.385 61.9621C181.778 62.6509 181.623 63.6596 181.605 64.5885C181.47 71.5544 181.55 78.5781 181.278 85.6241C181.053 91.6324 178.726 92.9929 173.322 91.1946C167.702 89.3386 162.023 87.7005 156.482 85.9822C154.788 85.4116 153.045 84.5944 151.165 83.8572C154.436 79.8322 154.436 79.8322 172.319 82.8736C166.619 73.9939 159.66 67.2277 152.398 60.7305C145.136 54.2332 137.064 49.036 128.104 45.0012C118.82 40.8798 109.171 40.2782 97.957 40.7746Z" fill="white"/>
</g>
</g>
</g>
</g>
<defs>
<clipPath id="clip0_381_9336">
<rect x="90.3906" y="22.25" width="100" height="80" rx="32" fill="white"/>
</clipPath>
<clipPath id="clip1_381_9336">
<rect width="100" height="80" fill="white" transform="translate(90.3906 22.25)"/>
</clipPath>
<clipPath id="clip2_381_9336">
<rect width="100" height="63.75" fill="white" transform="translate(90.3906 30.375)"/>
</clipPath>
</defs>
</svg>
