<svg width="163" height="167" viewBox="0 0 163 167" fill="none" xmlns="http://www.w3.org/2000/svg">
<g clip-path="url(#clip0_381_9462)">
<g clip-path="url(#clip1_381_9462)">
<g clip-path="url(#clip2_381_9462)">
<g filter="url(#filter0_f_381_9462)">
<path fill-rule="evenodd" clip-rule="evenodd" d="M83.0063 145.65L83.0034 145.466C82.9667 143.496 82.9306 141.53 82.7264 139.56C82.027 132.787 79.8662 125.896 76.0621 120.216C75.9024 119.978 75.6551 119.813 75.3742 119.757C75.0933 119.702 74.8017 119.759 74.5632 119.918C74.3257 120.078 74.1612 120.325 74.1058 120.606C74.0503 120.887 74.1085 121.178 74.2675 121.416C77.8801 126.805 79.9141 133.354 80.5773 139.779C80.7779 141.727 80.8122 143.67 80.848 145.618C80.8616 146.651 80.887 147.683 80.9241 148.715C80.9327 149.122 80.9516 149.981 81.0129 150.195C81.1851 150.819 81.6545 150.968 81.8815 151.008C82.069 151.044 82.3037 151.042 82.5716 150.934C82.7902 150.844 83.166 150.575 83.5912 150.109C84.4944 149.127 85.9729 147.08 87.0211 145.63C87.562 144.882 87.9883 144.291 88.1624 144.087C93.3162 138.038 99.05 133.123 104.992 128.028C105.793 127.343 106.596 126.655 107.403 125.958C107.62 125.77 107.753 125.505 107.774 125.219C107.795 124.933 107.702 124.651 107.516 124.433C107.423 124.326 107.31 124.238 107.183 124.174C107.057 124.11 106.919 124.072 106.777 124.062C106.636 124.052 106.494 124.069 106.36 124.114C106.225 124.158 106.1 124.229 105.993 124.321C105.215 124.992 104.44 125.657 103.666 126.32C98.4206 130.818 93.3375 135.177 88.6614 140.267C97.1009 122.614 90.9233 104.67 79.1248 90.2252C67.5425 76.0433 50.5344 65.2896 36.8797 61.5449C37.9968 61.421 38.9592 61.3089 39.4675 61.2464C40.2535 61.1479 41.3441 61.0738 42.622 60.986C46.3688 60.7303 51.7272 60.3633 55.7576 58.9756C59.8814 57.5577 62.6318 55.069 61.9223 51.0022C61.2771 47.3052 57.7702 44.8255 52.8055 43.4431C42.1196 40.4672 24.6761 42.3051 19.551 44.2227C19.2828 44.3231 19.0655 44.526 18.9469 44.7867C18.8284 45.0474 18.8182 45.3445 18.9186 45.6126C19.0191 45.8808 19.222 46.0981 19.4826 46.2167C19.7433 46.3352 20.0404 46.3454 20.3086 46.245C25.2272 44.4066 41.9705 42.6664 52.2281 45.5233C56.2381 46.6396 59.2746 48.3857 59.7945 51.3722C60.3101 54.3192 58.0436 55.9047 55.0533 56.9337C51.15 58.2786 45.9632 58.616 42.319 58.8532C41.0527 58.9367 39.9736 59.0064 39.1982 59.1025C38.5741 59.1805 37.3665 59.3085 36.0078 59.4519C33.2588 59.7437 29.8899 60.0984 29.4852 60.239C28.7292 60.499 28.7135 61.128 28.7236 61.3348C28.7308 61.495 28.8222 62.2919 29.7995 62.3846C43.737 63.7081 64.2168 75.3857 77.4512 91.589C90.1234 107.104 96.1443 126.834 83.0063 145.65Z" fill="url(#paint0_linear_381_9462)" fill-opacity="0.5"/>
</g>
<path fill-rule="evenodd" clip-rule="evenodd" d="M85.3423 144.038L85.3395 143.855C85.3028 141.884 85.2667 139.919 85.0624 137.948C84.3631 131.176 82.2023 124.285 78.3982 118.604C78.2385 118.367 77.9911 118.202 77.7102 118.146C77.4293 118.09 77.1377 118.148 76.8993 118.306C76.6615 118.466 76.4967 118.714 76.4411 118.995C76.3855 119.276 76.4436 119.567 76.6028 119.806C80.2153 125.194 82.2502 131.742 82.9134 138.168C83.1139 140.115 83.1483 142.059 83.1833 144.007C83.2002 144.971 83.2177 145.936 83.2549 146.902L83.2602 147.104C83.2688 147.511 83.2877 148.37 83.3481 148.584C83.5212 149.207 83.9906 149.356 84.2168 149.397C84.4051 149.432 84.6397 149.431 84.9069 149.323C85.1262 149.233 85.5021 148.964 85.9273 148.497C86.8296 147.516 88.309 145.468 89.3572 144.018C89.8981 143.27 90.3244 142.68 90.4977 142.477C95.6515 136.427 101.385 131.512 107.328 126.417C108.129 125.732 108.932 125.043 109.739 124.347C109.956 124.159 110.089 123.893 110.11 123.607C110.131 123.322 110.038 123.039 109.852 122.822C109.759 122.714 109.646 122.626 109.52 122.562C109.393 122.499 109.255 122.46 109.114 122.45C108.972 122.44 108.83 122.457 108.696 122.502C108.561 122.547 108.436 122.617 108.329 122.71C107.551 123.38 106.775 124.046 106.003 124.709C100.756 129.207 95.6728 133.566 90.9967 138.657C99.437 121.002 93.2594 103.058 81.46 88.6143C69.8778 74.4325 52.8705 63.6782 39.2158 59.9334C40.3328 59.8096 41.2953 59.6975 41.8036 59.635C42.5887 59.5371 43.6794 59.463 44.9573 59.3752C48.7041 59.1195 54.0624 58.7525 58.0929 57.3648C62.2166 55.9468 64.9671 53.4581 64.2584 49.3907C63.6132 45.6938 60.1054 43.2147 55.1415 41.8317C44.4549 38.8563 27.0113 40.6943 21.887 42.6113C21.7543 42.661 21.6326 42.7364 21.5289 42.8332C21.4253 42.93 21.3417 43.0462 21.283 43.1753C21.2243 43.3043 21.1916 43.4437 21.1867 43.5854C21.1819 43.7271 21.205 43.8684 21.2547 44.0012C21.3045 44.134 21.3799 44.2557 21.4766 44.3593C21.5734 44.463 21.6896 44.5465 21.8187 44.6052C21.9478 44.664 22.0872 44.6967 22.2289 44.7015C22.3706 44.7064 22.5119 44.6833 22.6447 44.6335C27.5632 42.7952 44.3057 41.0555 54.5642 43.9119C58.5733 45.0287 61.6098 46.7748 62.1305 49.7608C62.6454 52.7083 60.3788 54.2939 57.3893 55.3222C53.4853 56.6677 48.2984 57.0052 44.6543 57.2424C43.3887 57.3253 42.3097 57.395 41.5342 57.4911C40.9102 57.569 39.7025 57.6971 38.3439 57.8405C35.5949 58.1323 32.2252 58.4876 31.8213 58.6275C31.0645 58.8881 31.0495 59.5166 31.0589 59.724C31.0669 59.8836 31.1591 60.6799 32.1356 60.7732C46.073 62.0967 66.552 73.7749 79.7872 89.9776C92.4595 105.492 98.4796 125.223 85.3423 144.038Z" fill="url(#paint1_linear_381_9462)"/>
</g>
</g>
</g>
<defs>
<filter id="filter0_f_381_9462" x="3.84961" y="26.8762" width="118.928" height="139.153" filterUnits="userSpaceOnUse" color-interpolation-filters="sRGB">
<feFlood flood-opacity="0" result="BackgroundImageFix"/>
<feBlend mode="normal" in="SourceGraphic" in2="BackgroundImageFix" result="shape"/>
<feGaussianBlur stdDeviation="7.5" result="effect1_foregroundBlur_381_9462"/>
</filter>
<linearGradient id="paint0_linear_381_9462" x1="41.168" y1="34.7382" x2="90.5946" y2="147.415" gradientUnits="userSpaceOnUse">
<stop stop-color="#FF2F2F" stop-opacity="0"/>
<stop offset="0.363" stop-color="#EF7B16"/>
<stop offset="0.698" stop-color="#8A43E1"/>
<stop offset="1" stop-color="#D511FD" stop-opacity="0"/>
</linearGradient>
<linearGradient id="paint1_linear_381_9462" x1="43.5032" y1="33.1273" x2="92.9307" y2="145.803" gradientUnits="userSpaceOnUse">
<stop stop-color="#FF2F2F"/>
<stop offset="0.363" stop-color="#EF7B16"/>
<stop offset="0.698" stop-color="#8A43E1"/>
<stop offset="1" stop-color="#D511FD"/>
</linearGradient>
<clipPath id="clip0_381_9462">
<rect width="126" height="110.737" fill="white" transform="translate(91.1719) rotate(55.4199)"/>
</clipPath>
<clipPath id="clip1_381_9462">
<rect width="126" height="123" fill="white" transform="translate(81.1719) rotate(55.4199)"/>
</clipPath>
<clipPath id="clip2_381_9462">
<rect width="155" height="123" fill="white" transform="translate(72.9414 -11.9382) rotate(55.4199)"/>
</clipPath>
</defs>
</svg>
