<svg width="53" height="53" viewBox="0 0 53 53" fill="none" xmlns="http://www.w3.org/2000/svg">
<path d="M31.923 9.51309C30.4691 8.74216 22.0631 19.1918 21.0127 18.7657C19.9623 18.3396 12.3522 13.9846 11.5993 14.9473C10.8463 15.9101 17.7313 26.8554 17.3211 27.8666C16.9109 28.8778 10.7108 37.6859 11.0723 38.6931C11.4339 39.7002 21.9707 31.9267 22.6309 32.4209C23.2911 32.9152 28.9004 46.5587 29.7047 46.2509C30.509 45.9431 28.6267 33.7207 29.0684 32.6317C29.5101 31.5427 42.9544 28.6623 43.9239 28.0591C44.8933 27.456 34.316 24.1619 32.76 23.5308C31.2041 22.8997 33.3769 10.284 31.923 9.51309Z" stroke="#FFC316" stroke-width="3" stroke-linecap="round"/>
</svg>
