<svg width="162" height="121" viewBox="0 0 162 121" fill="none" xmlns="http://www.w3.org/2000/svg">
<g clip-path="url(#clip0_381_9663)">
<path d="M46.6845 121.727C45.5448 119.982 44.4497 118.322 43.3774 116.634C41.1987 113.362 39.397 109.854 38.006 106.178C37.3264 104.399 36.8561 102.546 36.6045 100.659C36.0723 97.4404 36.5436 94.1368 37.9545 91.1967C39.3652 88.2569 41.6472 85.8229 44.4902 84.2259C47.6653 82.3672 51.2012 81.2075 54.8614 80.8246C59.2796 80.2913 63.7392 80.1845 68.1785 80.5059C69.4185 80.72 70.685 80.7267 71.9267 80.5251C71.8333 79.2328 71.4293 77.982 70.7491 76.8789C69.1704 73.2755 68.1012 69.47 67.5723 65.5723C67.0534 61.9163 67.7552 58.1924 69.5691 54.9779C70.7341 53.0029 72.3177 51.3071 74.2086 50.0097C76.0996 48.7123 78.252 47.8449 80.5147 47.4683C83.5008 46.8949 86.546 46.6862 89.5833 46.8468C94.6432 47.1244 99.6743 47.7979 104.63 48.8617C105.626 49.0775 106.594 49.2708 107.611 49.4348C107.704 49.4536 107.799 49.4514 107.891 49.4281C107.983 49.4052 108.068 49.3619 108.141 49.3018C108.214 49.2415 108.272 49.1659 108.312 49.0801C108.352 48.9944 108.372 48.9009 108.371 48.8064C108.346 47.9313 108.269 47.0359 108.249 46.2107C108.05 44.0481 108.47 41.8741 109.46 39.9419C110.45 38.0101 111.969 36.3993 113.839 35.2979C116.263 33.6656 119.064 32.6812 121.976 32.4378C125.646 32.1678 129.337 32.4666 132.916 33.3234C140.008 34.9759 146.848 37.5712 153.252 41.0401C160.387 44.607 167.317 48.5728 174.007 52.9181C181.24 57.3987 187.679 63.0495 193.061 69.6395C193.748 70.5393 194.37 71.487 194.921 72.4759C195.047 72.6981 195.096 72.9562 195.058 73.2092C195.021 73.4618 194.9 73.695 194.715 73.8715C194.603 73.9847 194.469 74.0736 194.321 74.1334C194.174 74.1936 194.015 74.2228 193.856 74.2201C193.697 74.2173 193.539 74.1822 193.394 74.1173C193.248 74.0519 193.117 73.9582 193.009 73.8413C192.403 73.3735 191.859 72.8306 191.391 72.2247C184.727 63.4951 175.823 57.4245 166.586 51.858C159.87 47.8178 152.937 44.1496 145.819 40.8705C141.325 38.8088 136.615 37.2557 131.776 36.2398C129.428 35.7135 127.036 35.4135 124.632 35.3442C122.347 35.2634 120.07 35.6449 117.937 36.4651C116.637 36.884 115.436 37.5636 114.408 38.4624C113.38 39.3611 112.547 40.4602 111.958 41.6924C111.37 42.9244 111.039 44.264 110.986 45.6288C110.933 46.9936 111.159 48.3548 111.65 49.6299C111.735 49.929 111.897 50.2004 112.12 50.4166C112.343 50.6332 112.619 50.787 112.921 50.8625L116.104 51.8819C125.846 54.6983 135.226 58.6431 144.053 63.6365C150.774 67.4589 156.66 72.5905 161.364 78.7271C162.331 80.0557 163.213 81.4456 164.001 82.8879C164.672 84.102 165.12 85.4259 165.327 86.797C166.28 92.4918 163.113 96.4703 157.315 96.8007C154.905 96.8406 152.505 96.473 150.217 95.7131C145.127 94.1028 140.347 91.6368 136.083 88.4214C127.787 82.3396 120.678 74.786 115.111 66.1373C112.882 62.8941 111.122 59.3532 109.884 55.6188C109.714 54.8247 109.306 54.1012 108.714 53.5448C108.122 52.9885 107.375 52.626 106.572 52.5053C100.285 50.9861 93.8623 50.1055 87.4 49.877C84.9933 49.8102 82.5883 50.057 80.2458 50.611C77.2235 51.1924 74.5276 52.8808 72.6861 55.3456C70.8445 57.8105 69.9897 60.8743 70.2888 63.9378C70.4303 65.8456 70.7856 67.7319 71.3482 69.5611C72.3594 72.9572 73.616 76.2755 75.1083 79.49C75.3499 80.135 75.775 80.6952 76.3307 81.1023C76.8866 81.509 77.5492 81.7446 78.2371 81.7797C84.6306 82.7078 90.9151 84.276 96.9958 86.4605C106.359 89.6856 115.13 94.4246 122.961 100.489C126.18 102.962 129.036 105.873 131.448 109.138C132.67 110.757 133.643 112.549 134.335 114.456C134.816 115.777 135.047 117.177 135.015 118.583C135.097 119.611 134.942 120.644 134.563 121.602C134.183 122.561 133.589 123.42 132.827 124.114C132.064 124.807 131.153 125.317 130.162 125.605C129.172 125.892 128.129 125.949 127.112 125.771C124.109 125.437 121.194 124.547 118.517 123.144C107.312 118.024 97.0913 110.976 88.3218 102.321C83.1064 97.3157 78.5567 91.6601 74.7845 85.4941C74.582 85.1031 74.2809 84.7715 73.9109 84.5328C73.5408 84.294 73.1148 84.156 72.6753 84.1324C66.1356 83.2365 59.5011 83.2988 52.9811 84.3176C50.0169 84.8617 47.2127 86.0638 44.7754 87.8349C43.1274 88.9972 41.7896 90.545 40.8782 92.3435C39.9668 94.1421 39.5098 96.1366 39.5468 98.1532C39.5581 100.565 40.0311 102.954 40.9408 105.189C43.3907 111.187 46.7007 116.798 50.7668 121.844C51.5759 122.802 52.731 123.402 53.9801 123.512C59.0739 124.551 64.0962 125.915 69.0162 127.595C79.461 131.066 89.4587 135.763 98.7994 141.587C102.329 143.841 105.586 146.499 108.502 149.506C109.803 150.78 110.791 152.339 111.386 154.06C111.636 154.678 111.757 155.341 111.742 156.008C111.728 156.674 111.578 157.331 111.302 157.938C111.026 158.545 110.63 159.09 110.137 159.538C109.645 159.988 109.066 160.332 108.435 160.55C106.767 161.166 104.965 161.328 103.213 161.02C100.201 160.584 97.2556 159.77 94.4468 158.596C87.8632 155.95 81.5634 152.645 75.6435 148.732C66.6557 143 58.5883 135.939 51.7161 127.789C50.8147 126.551 49.4661 125.713 47.9568 125.453C41.7133 124.375 35.3781 123.923 29.0457 124.106C26.8986 124.223 24.7607 124.472 22.6441 124.851C21.1461 125.11 19.6784 125.52 18.2635 126.076C13.7921 127.847 12.528 130.636 14.1446 135.159C15.3353 138.231 17.011 141.091 19.1077 143.633C22.516 147.869 26.25 151.832 30.2756 155.487C38.1819 162.798 46.612 169.522 55.4981 175.605C64.8155 182.181 74.4963 188.226 84.4946 193.711C86.2578 194.689 88.0868 195.56 89.8838 196.497C90.4516 196.773 90.9821 197.12 91.4636 197.528C91.5954 197.653 91.6955 197.808 91.7559 197.979C91.8166 198.15 91.8355 198.333 91.8113 198.513C91.7721 198.766 91.6485 198.997 91.4609 199.17C91.2734 199.343 91.0325 199.447 90.7781 199.466C89.7595 199.496 88.756 199.214 87.9019 198.658C84.7001 196.976 81.3943 195.253 78.218 193.431C67.7439 187.488 57.6389 180.917 47.9586 173.754C38.1929 166.707 29.0837 158.794 20.7417 150.109C17.6547 146.918 14.9931 143.342 12.8232 139.469C11.8105 137.709 11.0801 135.801 10.6584 133.815C10.2144 132.002 10.3914 130.094 11.1611 128.395C11.9307 126.696 13.2484 125.305 14.9032 124.445C17.1091 123.196 19.5164 122.343 22.0166 121.922C26.5029 121.082 31.0786 120.819 35.6324 121.139C38.5525 121.292 41.4534 121.659 44.3459 121.926C45.078 121.989 45.8138 122.24 46.6845 121.727ZM113.289 54.1262C113.16 55.1696 113.383 56.2269 113.923 57.1295C115.745 61.1663 118.027 64.9788 120.726 68.4911C125.93 75.6839 132.323 81.9362 139.631 86.9794C143.227 89.5353 147.197 91.5178 151.4 92.8563C153.46 93.5328 155.633 93.795 157.794 93.6274C158.463 93.6349 159.126 93.4994 159.738 93.2298C160.35 92.9604 160.898 92.5635 161.343 92.0652C161.789 91.567 162.124 90.9789 162.324 90.3409C162.524 89.703 162.586 89.0292 162.505 88.3654C162.463 87.2244 162.201 86.1019 161.732 85.0608C161.051 83.5666 160.203 82.1552 159.203 80.8531C154.377 74.4654 148.226 69.1971 141.173 65.41C134.064 61.5315 126.602 58.3361 118.889 55.8673C117.14 55.3396 115.316 54.8182 113.289 54.1262ZM78.5903 85.308C78.7437 85.7795 78.9381 86.2367 79.1713 86.6743C81.4329 90.0334 83.9515 93.212 86.7043 96.1821C93.898 104.051 102.251 110.776 111.473 116.126C115.037 118.303 118.803 120.131 122.718 121.584C124.488 122.293 126.379 122.655 128.285 122.651C129.18 122.676 130.05 122.361 130.72 121.768C131.39 121.177 131.81 120.352 131.896 119.462C132.13 117.948 131.919 116.399 131.287 115.003C130.298 112.669 128.906 110.526 127.173 108.675C124.463 105.669 121.419 102.982 118.101 100.664C106.921 92.9389 94.217 87.6968 80.8444 85.2915C80.1171 85.1404 79.3997 84.8132 78.5903 85.308ZM55.6391 127.656C57.2132 129.352 58.6202 130.998 60.1636 132.483C65.6758 137.873 71.7446 142.661 78.2692 146.767C83.9211 150.393 89.9087 153.466 96.1488 155.945C98.2653 156.784 100.46 157.412 102.7 157.818C103.944 158.082 105.227 158.096 106.475 157.86C106.858 157.83 107.228 157.702 107.548 157.491C107.869 157.279 108.13 156.989 108.309 156.649C108.487 156.308 108.577 155.928 108.568 155.544C108.561 155.16 108.455 154.784 108.262 154.451C107.712 153.311 106.966 152.275 106.057 151.393C103.237 148.47 100.058 145.916 96.5958 143.791C84.6945 136.498 71.7595 131.048 58.2301 127.624C57.8216 127.44 57.3784 127.347 56.9308 127.353C56.4832 127.359 56.0423 127.462 55.6391 127.656Z" fill="#54FA80"/>
</g>
<defs>
<clipPath id="clip0_381_9663">
<rect width="175" height="111" fill="white" transform="translate(0.679688 134.66) rotate(-49.8873)"/>
</clipPath>
</defs>
</svg>
