<svg width="64" height="47" viewBox="0 0 64 47" fill="none" xmlns="http://www.w3.org/2000/svg">
<mask id="mask0_381_9668" style="mask-type:luminance" maskUnits="userSpaceOnUse" x="0" y="0" width="64" height="47">
<path d="M8.52625 4.45106e-05L0 14.7079L55.4256 46.5777L63.9519 31.8699L8.52625 4.45106e-05Z" fill="white"/>
</mask>
<g mask="url(#mask0_381_9668)">
<path d="M39.4047 31.6651C40.197 31.2968 40.9445 30.8375 41.632 30.2964C43.5277 28.9975 45.3958 27.6719 47.2834 26.3684C47.7046 26.0598 48.1529 25.7906 48.6229 25.5641C49.1424 25.3042 49.7387 25.2486 50.2931 25.4085C50.8477 25.5684 51.3197 25.932 51.6155 26.4271C51.998 27.044 52.2717 27.7228 52.4247 28.4343C52.9307 30.3324 53.304 32.2735 53.6435 34.2169C53.7504 34.8321 53.8829 35.4404 54.0329 36.037C54.0388 36.0892 54.0587 36.1385 54.0905 36.1799C54.1222 36.2214 54.1647 36.2533 54.2133 36.2725C54.262 36.2915 54.315 36.2969 54.3668 36.2882C54.4185 36.2795 54.4671 36.2569 54.5073 36.2229C54.901 35.9715 55.2799 35.6899 55.6588 35.4082C56.7543 34.6157 57.8464 33.8104 58.95 33.0224C59.4477 32.6344 60.0432 32.3935 60.6682 32.3274C60.9776 32.2645 61.2978 32.2966 61.5869 32.4194C61.8759 32.5421 62.1203 32.7499 62.2881 33.0154C62.4558 33.2809 62.5391 33.5918 62.527 33.9072C62.5147 34.2227 62.4077 34.528 62.2199 34.7833C61.9969 35.1984 61.6873 35.5612 61.3123 35.8467C59.5946 37.1176 57.8802 38.4012 56.151 39.6547C55.7271 39.9554 55.2763 40.2161 54.8047 40.4333C52.8614 41.3682 51.569 40.8639 50.9457 38.8333C50.581 37.6029 50.3214 36.3026 50.0415 35.0559C49.7133 33.5206 49.4349 31.9924 49.0905 30.4479C48.9749 29.9036 48.7956 29.8223 48.348 30.1296L44.0873 33.1089C42.7736 34.0514 41.3915 34.8938 39.953 35.6288C39.5067 35.8606 39.0364 36.0418 38.5509 36.1691C38.013 36.3063 37.445 36.2293 36.9667 35.9543C36.4885 35.6793 36.1375 35.2279 35.9878 34.6953C35.8261 34.1548 35.7147 33.6 35.6549 33.038C35.1543 29.4383 34.6747 25.8398 34.166 22.2355C34.074 21.5202 33.9098 20.8178 33.7504 20.1072C33.7431 20.0554 33.724 20.0061 33.695 19.9631C33.6658 19.9199 33.6272 19.8841 33.5821 19.8581C33.537 19.8322 33.4865 19.8169 33.4345 19.8133C33.3824 19.8097 33.3301 19.818 33.2815 19.8375C32.8898 19.9924 32.5177 20.1693 32.1376 20.3416C30.2386 21.2368 28.3539 22.1076 26.4692 22.9785C26.0077 23.2059 25.5327 23.4042 25.0469 23.5722C23.2486 24.1452 22.0641 23.399 21.835 21.5625C21.7939 21.1485 21.7762 20.7322 21.7816 20.3157C21.7358 18.7583 21.7109 17.202 21.6569 15.64C21.649 15.2445 21.7401 14.8083 21.369 14.3885C20.7219 14.668 20.0653 14.9637 19.3893 15.2373C17.5626 15.9894 15.7358 16.7416 13.8835 17.5007C13.1595 17.8011 12.3969 17.9954 11.6195 18.0774C11.2318 18.1399 10.8364 18.1252 10.4559 18.0342C10.0755 17.9432 9.71739 17.7776 9.4023 17.5471C9.08728 17.3165 8.82139 17.0254 8.61995 16.6905C8.41851 16.3556 8.28547 15.9835 8.22852 15.5955C8.16148 15.2408 8.11745 14.8818 8.0969 14.5209C7.82978 11.783 7.56854 9.04123 7.31319 6.29555C7.23535 5.42556 7.17976 4.53579 7.16127 3.65647C7.14439 3.18972 7.19728 2.72239 7.31823 2.26995C7.37208 2.03877 7.48902 1.82655 7.65594 1.6571C7.82292 1.48765 8.03322 1.36764 8.2633 1.31055C8.49337 1.25345 8.73418 1.26152 8.9587 1.33384C9.18321 1.40617 9.38258 1.53989 9.53437 1.72003C9.8589 2.0595 10.0877 2.4794 10.1977 2.93755C10.3606 3.53068 10.4776 4.18431 10.6081 4.75884C11.0786 7.38484 11.4136 10.0347 11.6116 12.698C11.7261 14.36 11.6978 14.4089 13.3662 13.7068C15.2077 12.9849 17.021 12.1816 18.8477 11.4294C19.8129 11.0289 20.7634 10.5982 21.7522 10.2872C23.5842 9.71185 24.8718 10.4848 25.0968 12.3841C25.2888 14.0798 25.2976 15.7571 25.3602 17.5087C25.393 17.9728 25.3922 18.4392 25.4249 18.9033C25.4444 19.1859 25.6553 19.2312 25.8696 19.159C26.1629 19.0558 26.4495 18.934 26.7277 18.7946L31.6607 16.4406C32.1366 16.2148 32.5929 15.9668 33.0722 15.7538C35.1646 14.7852 36.4987 15.422 37.0262 17.6364C37.4016 19.0902 37.6875 20.5684 37.922 22.0606C38.3434 24.8112 38.6509 27.5724 39.0447 30.2962C39.1079 30.7452 39.0463 31.2419 39.4047 31.6651Z" fill="#FA4812"/>
</g>
</svg>
